<?xml version="1.0" standalone="no"?>
<!DOCTYPE svg PUBLIC "-//W3C//DTD SVG 1.1//EN" "http://www.w3.org/Graphics/SVG/1.1/DTD/svg11.dtd" >
<svg xmlns="http://www.w3.org/2000/svg">
<metadata>Generated by IcoMoon</metadata>
<defs>
<font id="ufo-icon" horiz-adv-x="1024">
<font-face units-per-em="1024" ascent="960" descent="-64" />
<missing-glyph horiz-adv-x="1024" />
<glyph unicode="&#x20;" horiz-adv-x="512" d="" />
<glyph unicode="&#xe900;" glyph-name="star" d="M495.8 942.511c-12.4-4.6-21.6-11.4-27.6-20-3-4.6-32-70.2-64.2-145.8-58.2-136.4-58.6-137.6-64.8-138.6-3.4-0.4-71.8-6.8-152.2-14-156.6-14.2-154.8-13.8-169.2-26.6-11.4-10-16.8-22.8-16.8-40.4 0.2-18.4 3.8-26.4 20.4-42.2 6.4-6.2 56.2-50.2 110.6-97.8s101.4-88.8 104.4-91.8l5.6-5.2-33.2-145c-34.8-151.8-36.4-161.6-30-176.8 10.2-24.6 35.4-38.4 60.2-33.2 11.6 2.4 16.8 5.4 168 95.8 53.8 32.2 99.8 59.6 102 60.6 3.4 1.6 24.8-10.6 130-73.6 69.4-41.4 130-77.2 134.8-79.4 5.8-2.6 13.2-3.8 21.6-3.8 30.2-0.2 53.6 23.4 53.2 53.4-0.2 7.8-11.8 62.2-33.4 157l-33.2 145 12.4 11.2c7 6.2 58 51 113.6 99.8 55.6 48.6 103.4 92 106.6 96.6 19 28.2 6.4 68.2-25.4 80.4-5.6 2.2-56.6 7.6-158.8 16.8-82.8 7.6-151 14.2-151.4 14.6s-27.2 62.4-59.2 137.6c-32.2 75.4-61.2 141-64.6 145.8-12.4 17.4-40.4 26.6-59.4 19.6zM568.8 733.511c30.4-71.4 57.6-132.8 60.2-136.6 6-8 19-17 28-19.6 3.6-1 69.6-7.4 146.8-14.4 77-7 140.2-13.4 140.2-14s-46.2-41.6-102.4-91c-56.4-49.2-105.6-92.8-109.4-96.8-9.8-10-14.2-20.8-14.2-35.4 0-9 8.6-50.4 31-149 17-75 30.6-136.6 30.4-137-0.4-0.4-54.2 31.4-119.6 70.6s-123 73-128.4 75c-11.2 4.4-25.8 4.8-36.6 1-4.4-1.4-62.2-35.2-128.6-75s-121.2-72-121.4-71.6c-0.4 0.4 13.2 62.2 30.2 137.2 22.2 97.8 31 140 31 148.8 0 15-4.8 26.2-15.4 36.8-4.2 4.2-53.4 47.6-109.2 96.4-55.8 49-101.4 89.4-101.4 90.2 0 0.6 63.2 6.8 140.2 13.8 77.2 7 143.2 13.4 146.8 14.4 9 2.6 22 11.6 27.8 19.6 2.6 3.6 29.8 65 60.4 136.4 30.4 71.4 56 129.8 56.8 129.8s26.2-58.4 56.8-129.6z" />
<glyph unicode="&#xe901;" glyph-name="card-shield" d="M290.887 847.082c-127.465-54.628-216.711-93.848-220.513-97.050-3.602-3.002-7.604-8.805-8.805-12.807-3.002-10.005-1.201-262.734 2.001-286.547 6.803-51.026 15.408-90.046 29.015-130.467 53.227-159.482 166.685-290.349 316.562-365.587 45.823-22.812 94.248-41.021 105.854-39.62 20.611 2.201 103.053 38.82 145.074 64.433 109.856 66.634 199.702 169.687 250.928 287.547 25.213 57.83 40.020 113.258 49.425 183.694 3.202 23.412 5.003 276.542 2.001 286.146-1.201 4.002-4.602 9.605-7.604 12.406-7.804 7.204-434.222 189.697-443.227 189.697-4.202-0.2-84.843-33.617-220.713-91.847zM709.701 791.454l194.9-83.643-1.001-118.060c-1.001-124.264-1.601-134.269-11.606-184.094-17.209-85.644-57.83-172.288-113.658-243.124-21.411-27.014-67.234-72.437-94.448-93.448-43.622-33.817-103.853-67.635-152.278-85.444l-19.61-7.204-15.408 5.803c-59.631 22.411-111.857 51.626-161.082 90.646-24.412 19.21-69.235 63.633-88.445 87.645-55.628 69.636-96.85 156.68-114.459 242.124-10.605 52.027-11.206 61.231-12.206 187.096l-1.001 118.060 194.9 83.443c107.055 46.024 196.1 83.443 197.701 83.643 1.601 0 90.646-37.619 197.701-83.443zM274.278 630.571c-14.007-7.004-20.811-14.207-28.214-29.815l-5.203-11.006v-139.071c0-105.454 0.6-141.072 2.401-147.275 5.603-17.809 22.612-34.218 41.221-39.82 15.208-4.402 439.825-4.402 455.033 0 18.61 5.603 35.618 22.011 41.221 39.82 1.801 6.203 2.401 41.821 2.401 147.275v139.071l-5.203 11.006c-7.404 15.608-14.207 22.812-28.214 29.815l-12.206 6.203h-451.031l-12.206-6.203zM722.108 554.733v-22.011h-420.215v44.023h420.215v-22.011zM722.108 396.652v-76.039h-420.215v152.078h420.215v-76.039zM438.362 423.465c-15.008-7.604-21.211-29.215-12.006-42.822 8.204-12.206 14.607-14.007 48.825-14.007 28.014 0 30.616 0.4 36.819 4.602 18.61 12.406 19.21 36.819 1.401 50.226-5.203 3.802-8.805 4.202-37.019 4.802-26.013 0.4-32.617-0.2-38.019-2.801zM587.439 422.265c-7.804-4.602-15.408-17.209-15.408-25.613 0-9.005 8.004-21.811 16.208-26.013 6.603-3.402 11.806-4.002 37.019-4.002 34.818 0 41.821 2.601 49.025 17.409 7.004 14.607 2.801 28.014-12.206 38.22-6.203 4.002-8.805 4.402-36.819 4.402-27.414 0-31.016-0.6-37.819-4.402z" />
<glyph unicode="&#xe902;" glyph-name="user-shield" d="M290.887 847.082c-127.465-54.628-216.711-93.848-220.513-97.050-3.602-3.002-7.604-8.805-8.805-12.807-3.002-10.005-1.201-262.735 2.001-286.547 6.803-51.026 15.408-90.046 29.015-130.467 53.227-159.482 166.685-290.349 316.562-365.587 45.823-22.812 94.248-41.021 105.854-39.62 20.611 2.201 103.053 38.82 145.074 64.433 109.856 66.634 199.702 169.687 250.929 287.547 25.213 57.83 40.020 113.258 49.425 183.694 3.202 23.412 5.003 276.542 2.001 286.147-1.201 4.002-4.602 9.605-7.604 12.406-7.804 7.204-434.222 189.697-443.227 189.697-4.202-0.2-84.843-33.617-220.713-91.847zM709.701 791.454l194.9-83.643-1.001-118.060c-1.001-124.264-1.601-134.269-11.606-184.094-17.209-85.644-57.83-172.288-113.658-243.125-21.411-27.014-67.234-72.437-94.448-93.448-43.622-33.817-103.853-67.635-152.278-85.444l-19.61-7.204-15.408 5.803c-59.631 22.411-111.857 51.626-161.082 90.646-24.413 19.21-69.235 63.633-88.445 87.645-55.628 69.636-96.85 156.68-114.459 242.124-10.605 52.027-11.206 61.231-12.206 187.096l-1.001 118.060 194.9 83.443c107.055 46.024 196.1 83.443 197.701 83.643 1.601 0 90.646-37.619 197.701-83.443zM487.587 679.597c-52.427-12.606-88.045-65.434-79.641-117.86 6.603-41.221 35.418-73.838 75.839-85.844 14.207-4.202 42.222-4.202 56.429 0 39.42 11.606 69.836 46.024 75.839 85.644 11.206 72.837-57.029 135.469-128.466 118.060zM526.607 619.966c18.81-6.803 30.215-23.012 30.015-43.222-0.4-25.013-19.41-44.023-44.623-44.023-50.426 0-62.232 70.236-14.607 87.245 4.202 1.401 10.806 2.601 14.607 2.601s10.405-1.201 14.607-2.601zM442.564 424.466c-32.216-5.403-64.233-27.814-80.441-56.429-10.605-18.81-14.407-35.618-15.608-66.634-1.001-25.413-0.8-29.015 3.002-37.419 5.203-11.606 14.007-17.409 26.414-17.409 10.405 0 20.010 5.003 25.413 13.407 2.801 4.202 3.802 11.206 4.802 33.617 1.401 33.017 5.003 44.023 18.81 56.829 16.609 15.408 16.008 15.208 89.046 15.208h65.033l9.405-5.403c21.211-12.606 27.614-26.814 29.415-66.634 1.001-22.411 2.001-29.415 4.802-33.617 5.403-8.404 15.008-13.407 25.413-13.407 12.406 0 21.211 5.803 26.414 17.409 3.802 8.404 4.002 12.006 3.002 37.419-0.8 23.012-2.001 31.216-6.203 44.423-9.405 29.615-29.615 54.228-55.428 67.835-22.612 11.806-31.216 13.007-100.852 12.807-34.017-0.2-66.834-1.001-72.437-2.001z" />
<glyph unicode="&#xe903;" glyph-name="align-left" d="M32.4 766.667c-16.8-4-32.4-23.2-32.4-39.8 0-18.8 12.8-36.8 29.2-41.8 12-3.6 953.6-3.6 965.6 0 11.4 3.4 23.8 16.4 27 28.2 5.4 19-2.6 39-19.4 48.8l-9.4 5.6-477 0.4c-262.4 0-480-0.4-483.6-1.4zM28.4 552.467c-9.8-2.8-23.6-17.6-26.4-28.2-5.2-19 2.8-39.2 19.6-49l9.4-5.6h620l9 5c13.4 7.6 20.6 19.2 21.6 34.8 1 14.2-2.8 24-13 33.6-13 12.4 9 11.6-327 11.4-188.8 0-309.2-0.8-313.2-2zM25 337.267c-32.8-17.2-33.2-60-0.6-76.8 7.2-3.8 19-3.8 487-3.8 462.6 0 479.8 0.2 487.6 3.8 32.8 15.2 33.2 59.6 0.6 76.4-7.2 3.8-19 3.8-488 3.8-433.8-0.2-481.2-0.4-486.6-3.4zM32.4 126.667c-16.8-4-32.4-23.2-32.4-39.8 0-18.8 12.8-36.8 29.2-41.8 6.4-1.8 77.8-2.4 313.6-2.4 334.6 0 312.8-0.8 326 11.6 16.2 15.2 17.6 44 2.6 60-2.4 2.6-8 6.8-12.4 9l-8 4.4-306 0.4c-168.2 0-309-0.4-312.6-1.4z" />
<glyph unicode="&#xe904;" glyph-name="sticky-note" d="M142.224 936.985c-39.84-6.607-80.482-37.238-98.5-74.075-16.617-34.035-15.215 5.806-15.215-436.243 0-442.249-1.401-402.208 15.416-436.443 15.215-31.432 48.049-58.66 85.687-71.473 10.611-3.403 27.027-3.604 373.38-4.204 248.653-0.4 366.772 0.2 376.182 1.602 41.842 6.407 82.484 36.437 101.103 74.275 16.617 34.035 15.215-5.806 15.215 436.243s1.401 402.208-15.215 436.243c-15.215 30.831-45.847 57.258-80.882 69.671l-16.016 5.606-365.371 0.2c-201.004 0.2-369.976-0.4-375.782-1.401zM884.178 902.15c35.636-9.41 65.867-39.84 75.276-76.077 2.603-10.21 3.003-34.235 3.003-168.371v-156.759l-10.611-4.004c-15.215-5.606-43.244-8.208-88.29-8.208-45.246 0-72.674-2.603-98.9-9.209-23.023-5.806-52.653-19.62-70.672-33.034-36.037-26.627-71.473-78.68-84.486-123.926-8.409-29.23-9.81-45.046-10.411-119.121-0.4-73.074-1.602-89.291-9.41-126.528l-4.204-20.621h-217.421c-194.397 0-218.822 0.4-228.632 3.203-37.438 11.211-65.266 39.64-74.676 76.077-2.803 11.011-3.203 48.049-3.203 345.551 0 364.77-0.801 342.748 11.812 367.573 12.012 23.824 33.634 42.243 60.461 51.252l14.815 5.005 362.368 0.2c307.713 0 363.97-0.4 373.179-3.003zM936.231 451.292c-2.402-4.204-13.814-22.022-25.426-39.64-41.042-62.864-75.477-108.11-122.124-159.962-26.427-29.63-160.163-164.567-161.364-163.166-0.4 0.4 0.2 5.806 1.201 11.812s2.603 49.25 3.403 96.098c2.002 92.294 2.603 98.5 14.615 131.534 7.007 19.62 22.223 45.246 37.438 63.464 28.229 34.035 67.068 54.455 116.719 61.462 9.009 1.201 41.842 3.003 72.674 3.804 30.831 0.601 58.66 1.401 61.663 1.602l5.806 0.4-4.605-7.408zM959.454 136.973c-8.409-35.836-34.235-63.665-70.872-76.077-13.013-4.404-14.415-4.404-129.932-4.605h-116.919l27.828 26.227c53.454 50.852 132.935 133.736 171.774 178.982 30.631 35.836 79.481 102.905 107.109 147.149l13.013 20.621 0.601-139.542c0.4-119.321 0-141.544-2.603-152.755zM97.98 41.676c6.807-4.204 19.82-10.010 28.629-13.013l16.016-5.405 362.368-0.601c324.73-0.4 363.97-0.2 378.184 2.603 26.026 5.205 49.050 17.418 69.871 36.637l9.41 9.009v-16.016c0-30.431-10.411-55.256-32.033-76.678-7.207-7.207-18.219-15.616-24.225-18.619-24.225-12.012-0.4-11.412-394.801-11.412h-361.968l-15.215 5.005c-44.846 15.015-72.674 54.055-72.674 101.703v15.816l11.812-10.811c6.607-5.806 17.618-14.014 24.625-18.219z" />
<glyph unicode="&#xe905;" glyph-name="ufocms" d="M485.997 917.925c-15.602-4-25.003-8.401-37.806-17.201-6.2-4.2-100.812-97.611-210.425-207.425-185.222-185.623-199.623-200.624-205.223-212.624-3.4-7.202-7.202-18-8.801-24.002-3.6-15.201-2.999-42.805 1.201-57.207 8.401-29.203 0.8-20.803 213.625-233.828 108.813-109.013 201.623-200.824 206.225-204.224 20.203-15.201 40.404-21.603 67.208-21.603 21.402 0 36.005 3.6 55.006 13.402 10.201 5.201 41.405 35.404 214.226 208.225 173.020 173.020 203.023 204.024 208.225 214.226 10.002 19.201 13.402 33.604 13.201 56.007 0 22.802-4.399 38.605-15.602 57.008-9.202 15.001-404.048 409.248-417.649 416.848-5.201 2.999-14.802 7.202-21.003 9.402-15.001 5.4-47.205 6.801-62.408 2.999zM539.803 894.923c6.801-2 16.401-6.602 21.603-10.002 5.4-3.201 98.811-95.411 207.824-204.625 218.025-218.626 206.423-205.625 211.224-236.228 2.999-19.201 0.199-37.405-8.602-55.405-5.802-12.002-22.002-28.802-205.625-212.225-218.425-218.425-208.225-209.025-237.827-214.226-19.201-3.201-40.005-0.199-58.007 8.401-12.401 6.002-27.605 20.602-212.624 205.823-184.021 184.021-199.824 200.223-205.625 212.425-8.602 17.403-11.402 37.604-8.401 56.209 4.999 30.003-4.8 19.201 209.824 234.228 107.613 107.613 199.824 199.023 205.424 203.023 21.003 15.801 54.207 20.803 80.811 12.601zM500.199 864.518c-4.8-0.8-12.202-3.801-16.401-6.2-4.399-2.6-95.611-92.411-202.824-199.623-141.816-141.816-196.425-197.423-199.623-204.024-3.4-7.001-4.399-12.401-4.399-25.003 0-13.801 0.8-17.403 5.6-26.202 8.002-14.202 390.646-396.446 403.448-403.047 5.802-2.8 14.002-4.8 23.003-5.4 27.803-1.801 12.202-15.402 231.626 203.424 215.424 215.025 207.425 206.225 207.425 230.426 0 7.001-1.801 16.401-4.2 23.203-4.2 11.001-13.001 20.203-201.224 207.625-155.218 154.418-198.823 197.023-206.225 200.223-11.402 5.4-24.403 7.001-36.204 4.601zM556.605 704.499c71.008-14.401 129.614-62.408 158.218-129.415l6.398-15.001 25.803-8.401c42.805-14.002 66.408-26.403 86.61-45.606 48.605-46.806 22.403-99.813-66.608-134.216-130.015-50.004-359.042-52.005-497.257-4-49.806 17.201-82.41 39.205-96.211 65.208-6.602 12.601-6.602 38.804 0.199 51.606 14.202 27.004 59.207 54.806 114.214 70.609 16.003 4.601 16.802 5.201 19.403 12.401 3.801 11.201 16.003 34.404 25.003 47.407 30.803 45.606 85.81 80.811 142.616 91.21 19.003 3.6 59.808 2.8 81.61-1.801zM382.185 266.848c4.601-3.801 4.8-4.8 5.4-38.404 0.401-19.003 0.199-36.605-0.6-39.205-2.999-12.002-15.801-16.202-25.803-8.401l-5.201 4v38.404c0 36.403 0.199 38.404 4.399 42.805 5.4 5.802 15.402 6.002 21.803 0.8zM523.402 266.247c4.601-4.2 4.601-4.399 4.601-57.807 0-59.407-0.199-60.408-13.402-63.008-5.4-1-7.402-0.199-12.601 4.999l-6.2 6.002 0.6 53.406c0.6 53.206 0.6 53.206 5.4 57.008 6.2 4.999 15.801 4.8 21.603-0.6zM664.219 266.848c4.8-3.801 4.8-4.2 4.8-43.205s0-39.405-4.8-43.205c-6.002-4.999-14.401-4.8-21.003 0.401l-5.201 4v38.404c0 36.403 0.199 38.404 4.399 42.805 5.4 5.802 15.402 6.002 21.803 0.8zM477.196 673.497c-37.004-7.202-65.808-22.204-93.612-48.605-31.805-30.003-53.406-73.008-57.008-113.414-1.4-17.002-3.801-15.001 30.404-26.802 54.005-18.601 93.212-25.003 156.017-24.802 52.005 0 74.61 2.6 118.214 13.801 25.803 6.602 64.007 19.603 67.607 23.203 1.201 1 1 8.002-0.6 18-12.401 81.61-71.809 143.616-151.818 159.020-18.202 3.4-50.807 3.4-69.209-0.401zM275.972 516.879c-54.806-20.403-80.607-43.004-75.008-65.607 2.6-10.602 22.802-27.403 47.205-39.405 127.414-61.808 400.447-62.007 529.061-0.199 62.607 30.202 63.008 61.808 1.201 92.81-12.401 6.2-43.004 18.202-46.405 18.202-1 0-1.4-8.602-0.6-19.803 1.599-26.202 1-27.203-26.802-38.804-116.214-49.006-257.231-50.206-375.644-3.201-25.203 9.801-32.604 14.401-35.205 21.402-2 4.999-1 28.201 1.4 37.004 1.4 4.601-1.4 4.2-19.201-2.4z" />
<glyph unicode="&#xe906;" glyph-name="key-shield" d="M290.887 847.082c-127.465-54.628-216.711-93.848-220.513-97.050-3.602-3.002-7.604-8.805-8.805-12.807-3.002-10.005-1.201-262.735 2.001-286.547 6.803-51.026 15.408-90.046 29.015-130.467 53.227-159.482 166.685-290.349 316.562-365.587 45.823-22.812 94.248-41.021 105.854-39.62 20.611 2.201 103.053 38.82 145.074 64.433 109.856 66.634 199.702 169.687 250.929 287.547 25.213 57.83 40.020 113.258 49.425 183.694 3.202 23.412 5.003 276.542 2.001 286.147-1.201 4.002-4.602 9.605-7.604 12.406-7.804 7.204-434.222 189.697-443.227 189.697-4.202-0.2-84.843-33.617-220.713-91.847zM709.701 791.454l194.9-83.643-1.001-118.060c-1.001-124.264-1.601-134.269-11.606-184.094-17.209-85.644-57.83-172.288-113.658-243.125-21.411-27.014-67.234-72.437-94.448-93.448-43.622-33.817-103.853-67.635-152.278-85.444l-19.61-7.204-15.408 5.803c-59.631 22.411-111.857 51.626-161.082 90.646-24.413 19.21-69.235 63.633-88.445 87.645-55.628 69.636-96.85 156.68-114.459 242.124-10.605 52.027-11.206 61.231-12.206 187.096l-1.001 118.060 194.9 83.443c107.055 46.024 196.1 83.443 197.701 83.643 1.601 0 90.646-37.619 197.701-83.443zM424.955 649.981c-50.426-11.606-86.644-44.223-102.452-92.247-4.602-13.807-5.203-19.41-5.403-41.021 0-22.211 0.6-26.814 5.603-41.021 15.408-44.823 52.227-78.84 97.25-90.246 28.415-7.204 68.435-2.401 93.448 11.006l10.205 5.603 10.205-10.205 10.205-10.405-15.208-14.808c-8.404-8.204-18.81-19.41-23.012-24.613-6.803-8.604-7.804-11.006-7.804-20.010 0-13.807 5.403-22.411 17.209-27.614 16.408-7.404 22.011-4.802 48.825 21.411l23.212 22.612 32.817-32.817-22.011-22.011c-13.607-13.607-22.812-24.413-24.212-28.615-4.202-12.807 2.401-29.215 14.207-35.418 6.803-3.602 20.41-4.002 26.614-0.8 2.401 1.201 14.407 12.006 26.414 24.012 22.011 21.811 22.211 21.811 28.615 19.61 13.207-4.602 29.815 3.602 35.618 17.609 3.802 8.805 3.402 15.408-1.001 24.212-2.201 4.002-34.017 37.419-70.636 74.038l-66.834 66.634 6.603 13.407c9.605 19.61 13.207 36.219 13.207 59.43-0.2 37.619-12.406 67.034-39.42 94.248-26.614 26.614-53.427 38.42-90.246 40.020-12.807 0.4-24.413-0.2-32.016-2.001zM482.985 584.948c37.219-17.409 53.828-61.832 37.219-99.451-5.603-12.406-22.812-29.815-36.018-36.219-10.005-5.003-13.407-5.603-32.216-5.603-19.010 0-22.211 0.6-32.417 5.603-45.023 22.011-56.829 79.241-24.613 117.060 21.611 25.213 57.83 32.817 88.045 18.61z" />
<glyph unicode="&#xe907;" glyph-name="error-shield" d="M290.887 847.082c-127.465-54.628-216.711-93.848-220.513-97.050-3.602-3.002-7.604-8.805-8.805-12.807-3.002-10.005-1.201-262.735 2.001-286.547 6.803-51.026 15.408-90.046 29.015-130.467 53.227-159.482 166.685-290.349 316.562-365.587 45.823-22.812 94.248-41.021 105.854-39.62 20.611 2.201 103.053 38.82 145.074 64.433 109.856 66.634 199.702 169.687 250.929 287.547 25.213 57.83 40.020 113.258 49.425 183.694 3.202 23.412 5.003 276.542 2.001 286.147-1.201 4.002-4.602 9.605-7.604 12.406-7.804 7.204-434.222 189.697-443.227 189.697-4.202-0.2-84.843-33.617-220.713-91.847zM709.701 791.454l194.9-83.643-1.001-118.060c-1.001-124.264-1.601-134.269-11.606-184.094-17.209-85.644-57.83-172.288-113.658-243.125-21.411-27.014-67.234-72.437-94.448-93.448-43.622-33.817-103.853-67.635-152.278-85.444l-19.61-7.204-15.408 5.803c-59.631 22.411-111.857 51.626-161.082 90.646-24.413 19.21-69.235 63.633-88.445 87.645-55.628 69.636-96.85 156.68-114.459 242.124-10.605 52.027-11.206 61.231-12.206 187.096l-1.001 118.060 194.9 83.443c107.055 46.024 196.1 83.443 197.701 83.643 1.601 0 90.646-37.619 197.701-83.443zM424.555 528.719c-8.805-3.802-15.608-12.406-17.609-22.411-2.601-11.806 2.401-19.41 32.617-50.026l29.215-29.615-29.215-29.415c-32.216-32.617-36.018-39.020-31.816-52.627 3.202-10.806 9.005-17.209 19.010-21.011 7.204-2.801 10.005-3.002 17.409-1.001s13.607 7.204 38.42 31.616l29.415 29.215 29.615-29.215c24.613-24.413 30.816-29.615 38.22-31.616 22.011-5.803 42.022 14.407 36.219 36.419-2.001 7.204-7.404 13.607-31.616 38.22l-29.215 29.415 29.215 29.615c24.413 24.613 29.615 30.816 31.616 38.22 5.803 22.011-15.808 43.022-37.219 36.219-5.803-1.801-15.808-10.405-37.419-31.816l-29.415-29.015-28.615 28.214c-35.218 35.218-41.621 38.62-58.83 30.616z" />
<glyph unicode="&#xe908;" glyph-name="done-shield" d="M291 846.867c-127.4-54.6-216.6-93.8-220.4-97-3.6-3-7.6-8.8-8.8-12.8-3-10-1.2-262.6 2-286.4 6.8-51 15.4-90 29-130.4 53.2-159.4 166.6-290.2 316.4-365.4 45.8-22.8 94.2-41 105.8-39.6 20.6 2.2 103 38.8 145 64.4 109.8 66.6 199.6 169.6 250.8 287.4 25.2 57.8 40 113.2 49.4 183.6 3.2 23.4 5 276.4 2 286-1.2 4-4.6 9.6-7.6 12.4-7.8 7.2-434 189.6-443 189.6-4.2-0.2-84.8-33.6-220.6-91.8zM709.6 791.267l194.8-83.6-1-118c-1-124.2-1.6-134.2-11.6-184-17.2-85.6-57.8-172.2-113.6-243-21.4-27-67.2-72.4-94.4-93.4-43.6-33.8-103.8-67.6-152.2-85.4l-19.6-7.2-15.4 5.8c-59.6 22.4-111.8 51.6-161 90.6-24.4 19.2-69.2 63.6-88.4 87.6-55.6 69.6-96.8 156.6-114.4 242-10.6 52-11.2 61.2-12.2 187l-1 118 194.8 83.4c107 46 196 83.4 197.6 83.6 1.6 0 90.6-37.6 197.6-83.4zM623 530.667c-4-1.2-26.8-22.8-66-62l-60-60-30 29.8c-32.2 32-37.8 35.4-52 32.2-18-4-28.4-26-20.2-41.6 3.6-6.4 84.4-87 90.6-90.2 6-3 17.8-2.8 24.2 0.6 6.6 3.6 147 144.4 150.2 150.6 5.8 11.4 0 30.6-11 37-7.6 4.4-18.4 5.8-25.8 3.6z" />
<glyph unicode="&#xe909;" glyph-name="shield" d="M290.887 847.082c-127.465-54.628-216.711-93.848-220.513-97.050-3.602-3.002-7.604-8.805-8.805-12.807-3.002-10.005-1.201-262.735 2.001-286.547 6.803-51.026 15.408-90.046 29.015-130.467 53.227-159.482 166.685-290.349 316.562-365.587 45.823-22.812 94.248-41.021 105.854-39.62 20.611 2.201 103.053 38.82 145.074 64.433 109.856 66.634 199.702 169.687 250.929 287.547 25.213 57.83 40.020 113.258 49.425 183.694 3.202 23.412 5.003 276.542 2.001 286.147-1.201 4.002-4.602 9.605-7.604 12.406-7.804 7.204-434.222 189.697-443.227 189.697-4.202-0.2-84.843-33.617-220.713-91.847zM709.701 791.454l194.9-83.643-1.001-118.060c-1.001-124.264-1.601-134.269-11.606-184.094-17.209-85.644-57.83-172.288-113.658-243.125-21.411-27.014-67.234-72.437-94.448-93.448-43.622-33.817-103.853-67.635-152.278-85.444l-19.61-7.204-15.408 5.803c-59.631 22.411-111.857 51.626-161.082 90.646-24.413 19.21-69.235 63.633-88.445 87.645-55.628 69.636-96.85 156.68-114.459 242.124-10.605 52.027-11.206 61.231-12.206 187.096l-1.001 118.060 194.9 83.443c107.055 46.024 196.1 83.443 197.701 83.643 1.601 0 90.646-37.619 197.701-83.443z" />
<glyph unicode="&#xe90a;" glyph-name="save" d="M100.381 935.443c-35.584-7.797-69.569-34.385-85.762-67.17-15.393-30.986-14.394 1-14.394-441.606s-1-410.619 14.394-441.606c16.393-33.185 50.178-59.374 86.762-67.17 20.791-4.398 800.448-4.398 821.239 0 47.779 9.996 88.161 50.378 98.157 98.157 4.398 20.791 4.398 800.448 0 821.239-9.996 47.779-50.378 88.161-98.157 98.157-20.191 4.198-802.447 4.198-822.239 0zM192.54 707.144l0.6-167.526 5.198-11.195c6.597-14.194 17.392-24.989 31.586-31.586l11.195-5.198h541.762l11.195 5.198c14.194 6.597 24.989 17.392 31.586 31.586l5.198 11.195 0.6 167.526 0.4 167.526 39.583-0.6c37.583-0.6 39.783-0.8 50.578-5.797 14.194-6.597 24.989-17.392 31.586-31.586l5.198-11.195v-797.649l-5.198-11.195c-6.597-14.194-17.392-24.989-31.586-31.586l-11.195-5.198h-797.649l-11.195 5.198c-14.194 6.597-24.989 17.392-31.586 31.586l-5.198 11.195-0.6 394.826c-0.4 433.409-1.199 404.822 11.595 424.014 7.197 10.995 18.192 19.192 32.586 23.989 8.396 2.999 16.993 3.598 46.779 3.798h36.584l0.4-167.326zM767.488 724.736c-0.6-147.735-0.6-149.934-4.798-155.332-2.199-2.999-6.597-7.397-9.596-9.596-5.398-4.198-6.197-4.198-241.094-4.198s-235.696 0-241.094 4.198c-2.999 2.199-7.397 6.597-9.596 9.596-4.198 5.398-4.198 7.597-4.798 155.332l-0.4 149.734h511.775l-0.4-149.734zM594.964 807.699c-8.196-3.598-16.593-13.794-17.992-21.79-0.6-3.598-1-37.983-0.6-76.766 0.6-67.37 0.8-70.569 4.798-75.767 7.797-10.595 14.194-13.794 26.788-13.794s18.992 3.199 26.788 13.794c3.998 5.398 4.198 7.797 4.198 81.164s-0.2 75.767-4.198 81.164c-2.199 2.999-6.397 7.397-9.196 9.396-6.597 4.998-22.59 6.397-30.587 2.599z" />
<glyph unicode="&#xe90b;" glyph-name="two-circular-arrows" d="M472.996 840.513c-83.209-8.401-158.818-39.404-223.224-91.41-21.802-17.402-58.607-56.606-74.208-78.609-18.202-25.603-32.404-49.806-30.403-51.606 2.4-2.2 53.206-22.203 56.006-22.203 1.4 0 5.601 5.601 9.601 12.401 13.802 22.803 34.804 48.806 57.807 70.808 105.812 101.812 261.229 127.014 394.444 63.807 72.808-34.404 131.815-93.211 166.218-166.018 10.401-22.203 21.002-51.806 24.803-70.008 1.2-5.401 2.6-11.601 3.2-13.402 1-3.4-2.4-3.6-53.806-3.6h-55.006l-6.201-7.001c-7.001-8.201-7.601-11.801-2.6-19.202 5.801-8.801 123.014-128.015 128.815-131.015 7.401-3.8 19.602-3.6 25.803 0.8 2.8 1.8 33.004 31.804 67.408 66.608 68.408 69.408 67.408 67.808 57.807 82.009l-4.601 6.801-46.205 0.6-46.205 0.4-3.4 18.602c-2 10.001-7.601 30.603-12.401 45.405-48.606 150.617-177.619 259.629-334.437 283.031-25.003 3.8-76.409 5.201-99.211 2.8zM130.958 486.874c-7.201-4.2-125.414-125.214-128.615-131.615-3.6-6.601-3-9.801 3.8-17.602l6.201-7.001h95.411l3.2-11.401c12.001-43.205 33.004-89.21 56.006-123.614 59.607-88.21 149.817-150.417 251.828-174.019 39.404-9.001 89.41-12.601 127.214-9.001 129.815 11.801 239.226 76.809 313.635 186.22l6.401 9.401-30.403 12.201c-16.602 6.601-30.403 12.001-30.603 11.601 0-0.2-5.401-7.601-11.801-16.402-15.802-21.602-54.006-59.007-77.209-75.609-21.402-15.202-67.008-38.404-91.010-46.405-45.005-15.202-93.011-21.202-138.616-17.402-50.806 4.2-86.81 14.202-131.415 36.404-36.804 18.402-60.607 35.604-91.010 66.008-30.003 30.003-47.405 53.806-65.807 90.41-11.601 22.803-24.203 54.406-24.203 60.207 0 0.8 23.403 1.4 51.806 1.4h52.006l4.601 6.401c2.8 4 4.601 9.401 4.601 14.202 0 7.201-2.4 10.001-66.208 73.408l-66.008 66.008h-8.801c-5.201 0-11.601-1.6-15.002-3.8z" />
<glyph unicode="&#xe90c;" glyph-name="paint-brush" d="M902.8 870.867c-6.8-2-16.6-6-22-9.2-10.6-6.2-4.6-0.2-337.6-329l-229.8-227-19.2-1.2c-38.2-2.6-66.2-10.8-94-28-36.8-22.8-69-66.4-85.2-115.6-13.8-42-50.8-69.4-101.4-75.4-6.4-0.8-11.6-2-11.6-2.6 0-0.8 5.6-6.8 12.4-13.4 65.8-64 135.6-93.4 214.6-90.2 32.4 1.2 53.4 5 82.2 14.4 56.2 18.4 100 48.4 120.6 82.8 15 24.8 23.6 59.2 21.8 88.2l-0.8 14.2 274.4 270.8c151 149 277.2 275.2 280.6 280.2 18.8 28.4 20.6 64.2 5.2 94.8-6.6 13-26 32.4-38.8 39-22.2 11.2-48.4 13.8-71.4 7.2zM944 808.067c15.6-8.2 21.2-29.2 11.6-43-2.6-3.4-95.8-96.4-207.4-206.4l-203-200.2-21.6 21.6c-11.8 11.8-21.6 22-21.6 22.6 0 3.2 405.4 401.6 412.6 405.6 10.2 5.6 18.6 5.6 29.4-0.2zM467.4 281.267l-33.4-33.6-45 45.4 34 32.8 33.8 33 44.2-44.2-33.6-33.4zM367.4 226.267c28-28.2 31.2-35.4 30.2-66.6-0.6-17.4-1.6-21.8-6.8-33-14-29.4-40.6-49.4-93.8-70.6-57-22.8-121.2-25.6-160.6-7.4-7 3.2-15.4 7.8-18.6 10.2l-6 4.2 5.2 4c11.8 9.2 33.8 41 46.6 67.4 17 34.8 28.8 52.2 47 69.6 30.8 29.2 68.6 44 113.4 44.4l21 0.2 22.4-22.4z" />
<glyph unicode="&#xe90d;" glyph-name="fire" d="M550.8 927.867c-125.4-55.2-200.2-157-222.8-303.2-7.8-51-8.8-70.2-8.4-168l0.4-95-13.2 13.8c-15.4 16.4-30.2 38.2-40.8 60.2-14.6 30.6-30.2 81.2-37 120-2 11-4 22.4-4.8 25.6l-1.2 5.4-15.6-10.2c-28.8-19.2-57.8-54.2-76.6-93-40.4-83.8-45.2-188.4-13.2-284.2 73-217.6 309-335.6 525.8-263 155.4 52.2 266 191 282.6 354.2 6.2 62.4-1.8 108.2-30.4 174.2-35.4 81.4-40.8 95-50 127-8.8 30.4-13.6 61-15 93.6-1 22-1.8 29.4-3.8 29.4-5.2 0-32.2-10.6-48.8-19.2-51.4-26.4-87.2-71-100.8-125.2-5-20.2-7.8-47-6.6-63.6l1.2-15-6 7c-22 25.4-47.8 72.4-60.4 110.2-21 62.6-27 114.4-29.2 249.2l-1.2 80.4-24.2-10.6zM514.8 802.267c-3.8-102.2 14.4-199.6 50.2-270.6 29-57.6 66.2-95.8 115.6-119 15.6-7.4 53-19 55-17 0.4 0.4-0.4 12.2-1.6 26-3.2 30.8-1.6 89.4 2.8 112 6.2 31.2 18.8 57.2 31.6 65 7.8 4.8 8.6 3.8 10.4-14 2.6-27.8 15.2-64.6 39.2-115 43-90.6 50.6-129.6 38-198-24.8-135.6-145.6-259-282-288.2-20.6-4.4-70.4-5-96-1-162 24.8-288.2 150-314.2 311.2-4 24.8-3.4 94.4 0.8 112 4 15.6 12 32.8 20.4 44l5.8 7.4 4.4-18.8c10.2-42.4 35-86 65.2-114.8 32.8-31.4 66.6-46.2 110.2-48.2l23.8-1.2-1.4 13.8c-3 33.8-7 129.4-7 166.8 0 171.8 32.2 290 97.4 357.2 9.2 9.4 29.8 26.8 31.8 26.8 0.6 0 0.4-16.4-0.4-36.4z" />
<glyph unicode="&#xe90e;" glyph-name="gamepad" d="M254.172 785.075c-87.615-15.892-158.711-81.342-180.249-165.403-1.673-6.691-18.82-95.352-37.848-197.187-42.030-224.371-42.449-227.507-26.556-267.447 15.474-39.312 47.885-69.423 89.497-83.224 14.428-4.809 20.074-5.646 42.867-5.646 22.374 0 28.438 0.836 42.239 5.437 37.639 12.546 57.295 29.066 91.17 76.533 19.238 27.184 21.329 30.948 21.329 39.312 0 7.528-1.255 10.664-7.11 17.147-6.273 6.691-8.364 7.737-16.31 7.737-5.019 0-11.501-1.673-14.637-3.555-2.927-1.882-14.847-16.519-26.347-32.411-24.047-33.457-33.457-42.658-52.067-51.231-34.502-16.31-75.487-8.782-102.671 18.61-15.265 15.474-22.793 30.529-25.929 51.858l-2.3 16.728 20.283 109.781c50.185 270.165 53.322 286.266 59.804 302.995 18.82 48.722 57.295 85.106 108.944 103.089l19.656 6.9h250.927c235.453 0 251.764-0.209 264.519-3.764 20.492-5.646 53.74-22.793 69.214-35.548 25.093-20.911 47.049-53.74 56.040-84.061 2.509-7.946 20.074-97.862 39.103-199.696 38.476-204.087 39.312-211.197 30.32-234.408-9.619-25.302-28.648-45.167-52.067-54.577-10.037-3.973-15.683-4.809-34.921-4.809-21.538 0-23.838 0.418-37.012 6.691-19.029 8.992-29.066 18.82-53.74 52.904-24.256 33.248-28.857 37.639-40.148 37.639-14.847 0-24.465-8.155-26.347-22.793-0.836-6.691 0.418-9.619 8.782-22.165 23.629-34.502 45.376-61.895 57.295-71.723 40.776-34.084 98.28-42.658 147.42-21.956 40.776 17.147 71.932 54.368 83.015 98.907 7.319 29.275 6.273 38.476-33.457 251.136-38.476 206.388-40.776 216.425-58.968 247.372-28.020 47.676-71.932 83.852-121.491 100.371-39.312 13.174-21.329 12.337-290.239 12.965-206.179 0.418-248.418 0-262.010-2.509zM699.986 683.24c-12.965-6.9-19.029-17.983-17.983-32.411 1.255-18.82 15.056-31.784 33.248-31.784 12.337 0 20.492 3.973 27.602 13.174 10.455 13.801 9.619 30.111-2.3 43.285-11.501 12.965-25.511 15.683-40.567 7.737zM295.157 678.431c-8.782-6.9-11.083-15.683-11.083-43.076v-22.583h-25.511c-21.747 0-26.766-0.627-32.411-4.182-12.546-7.528-16.728-23.002-9.201-34.084 7.528-11.501 11.71-12.965 40.357-13.592l26.347-0.836 0.836-26.347c0.627-28.648 2.091-32.83 13.592-40.357 11.083-7.528 26.556-3.346 34.084 9.201 3.555 5.646 4.182 10.664 4.182 32.411v25.511h22.583c12.337 0 25.929 1.046 30.111 2.091 15.683 4.391 23.211 23.629 14.847 37.848-5.855 10.037-14.010 12.337-42.239 12.337h-25.302v25.302c0 18.192-0.836 27.184-3.137 31.993-6.691 14.010-25.72 18.192-38.057 8.364zM629.099 612.144c-31.575-16.728-20.074-64.196 15.683-64.196 18.401 0 32.202 12.546 33.875 30.739 1.255 14.010-5.646 26.975-18.192 33.457-11.501 6.064-19.865 6.064-31.366 0zM771.082 612.144c-12.965-6.9-19.029-17.983-17.983-32.411 1.255-18.82 15.056-31.784 33.248-31.784 12.337 0 20.492 3.973 27.602 13.174 10.455 13.801 9.619 30.111-2.3 43.285-11.501 12.965-25.511 15.683-40.567 7.737zM701.032 541.884c-12.965-5.855-18.61-15.265-18.61-30.948 0-21.538 11.71-33.039 33.457-33.039 15.474 0 22.374 3.973 29.693 16.938 9.41 16.31 3.137 37.221-14.010 46.212-10.874 5.855-19.029 6.064-30.529 0.836zM652.101 435.031c-24.675-2.927-45.167-13.383-63.986-32.621-58.759-59.177-31.993-157.457 49.14-181.504 13.801-3.973 41.403-4.391 55.622-0.418 57.504 15.265 93.889 75.905 79.46 131.528-14.010 54.158-65.45 89.706-120.236 83.015zM684.094 381.918c49.767-17.774 53.322-86.361 5.646-108.735-11.501-5.228-34.712-5.646-46.212-0.836-29.484 12.755-43.703 49.349-30.32 77.997 12.546 26.975 44.121 40.985 70.887 31.575zM325.896 431.058c-17.983-6.064-31.366-14.428-45.794-29.066-42.239-42.867-42.030-109.781 0.627-152.020 24.465-24.465 47.467-33.248 82.597-31.993 21.12 0.627 23.211 1.046 40.357 9.41 13.801 6.691 21.538 12.128 31.575 22.165 53.949 54.786 38.266 142.192-31.575 175.649-17.774 8.573-18.82 8.782-42.239 9.201-19.029 0.418-26.556-0.209-35.548-3.346zM378.59 380.664c40.148-15.056 50.185-68.378 18.401-96.816-12.128-11.292-21.329-14.637-38.685-14.847-37.848-0.418-64.405 32.411-56.668 69.841 7.319 34.921 43.285 54.368 76.951 41.821z" />
<glyph unicode="&#xe90f;" glyph-name="support" d="M476.021 870.207c-66.561-5.996-132.922-29.383-189.089-66.961-77.554-51.77-133.921-126.526-163.504-216.073l-5.597-16.59h-14.392c-47.772 0-87.948-30.982-99.941-77.355-4.597-17.19-4.597-139.318-0.2-158.107 4.397-18.589 13.392-34.38 27.184-48.172 18.789-18.989 45.773-30.182 72.158-30.182h10.994l2.399-13.992c8.995-54.768 43.375-114.133 86.949-149.712 49.571-40.576 103.339-60.165 165.103-60.165h23.186l8.395-12.792c12.792-19.589 31.382-32.181 53.968-36.978 15.791-3.198 102.14-2.798 118.331 0.6 33.181 7.196 58.766 34.18 64.362 67.96 7.596 45.173-24.785 88.548-70.758 95.144-16.79 2.598-93.345 2.399-108.336 0-24.386-3.998-47.972-20.188-59.965-40.976l-4.397-7.995-22.987 0.2c-40.976 0.4-74.956 10.594-106.537 31.581-40.376 26.784-67.76 65.162-80.753 113.134l-5.197 18.989-0.8 135.121c-0.6 131.323-0.6 135.72 3.598 151.311 19.589 77.355 67.96 147.314 134.921 195.485 30.582 21.987 83.351 45.773 121.129 54.568 54.768 12.792 119.33 10.394 173.698-6.196 112.134-34.18 195.485-118.131 231.264-232.464l5.597-17.989 0.999-132.322c0.999-129.524 0.999-132.322 5.197-137.919 2.199-2.998 7.995-7.596 12.792-9.994 7.995-4.198 11.793-4.597 37.778-4.597 45.373 0 67.161 7.396 89.947 30.182 13.792 13.792 22.187 28.383 26.984 47.972 4.597 18.789 4.797 140.118 0 158.307-4.797 18.989-13.792 34.58-27.584 47.972-19.988 19.589-43.974 29.383-72.557 29.383h-14.392l-4.997 15.591c-30.582 96.543-93.545 176.097-181.094 228.466-72.358 43.175-159.307 62.963-243.857 55.567zM112.235 413.675v-90.947h-10.394c-13.192 0-24.985 6.596-31.182 17.59-4.397 7.795-4.397 9.394-4.397 73.157 0 61.164 0.2 65.761 3.998 73.157 3.598 7.196 10.994 13.992 17.989 16.59 1.599 0.6 7.795 1.199 13.592 1.199l10.394 0.2v-90.947zM944.146 498.225c13.392-10.194 13.592-11.793 13.592-84.55 0-63.962 0-65.562-4.397-73.357-6.196-10.994-17.989-17.59-31.182-17.59h-10.394v182.293l12.792-0.8c9.794-0.6 14.192-1.999 19.589-5.996zM565.768 77.672c8.195-6.996 8.595-17.79 0.999-25.585l-5.397-5.197h-98.742l-5.397 5.197c-7.596 7.795-7.196 18.589 0.999 25.585l6.196 5.197h95.144l6.196-5.197z" />
<glyph unicode="&#xe910;" glyph-name="refresh" d="M153.904 935.603c-9.202-4.001-15.404-10.003-20.405-19.605-3.801-7.602-4.201-14.404-7.002-169.045-1.6-88.624-2.401-165.244-1.8-170.046 2.201-16.805 15.804-30.808 32.609-33.209 4.201-0.6 78.821 0.2 165.844 1.8 151.241 2.601 158.643 3.001 166.045 6.802 20.005 10.203 28.008 32.009 19.005 51.414-4.601 9.803-10.803 15.804-21.206 20.205-7.202 3.001-17.605 3.201-111.030 2.001-56.615-0.8-107.429-1.8-113.030-2.401l-10.003-1 10.003 9.202c22.806 20.806 60.416 46.813 88.424 60.816 32.009 16.004 76.22 30.008 111.63 35.209 25.807 3.801 73.62 3.801 100.427 0 117.632-16.604 219.859-91.625 275.874-202.054 18.405-36.61 29.608-70.619 37.010-113.030 3.401-19.205 3.401-78.021 0-99.027-12.403-77.621-48.213-149.84-101.827-205.655-41.811-43.412-84.823-72.019-138.437-92.025-45.012-16.805-81.422-22.406-136.036-20.806-45.212 1.2-73.22 6.202-109.629 19.205-131.635 47.013-232.062 179.248-244.666 322.286-3.401 40.011-3.601 41.211-9.803 49.613-16.805 23.206-51.814 21.006-66.218-4.201-4.401-7.802-4.801-10.203-4.401-32.009 3.001-143.639 91.625-294.079 219.659-371.9 116.631-71.019 262.27-83.222 389.504-32.409 146.239 58.216 256.269 199.253 280.875 359.897 4.401 29.008 4.401 86.623 0.2 114.231-28.408 182.249-161.843 333.089-333.89 376.901-27.807 7.202-62.017 12.003-92.625 13.404-113.030 4.601-221.259-35.009-314.884-114.831l-8.802-7.602 1.4 109.229c1.4 98.626 1.2 109.829-1.8 117.031-8.402 20.405-31.408 30.208-51.014 21.606z" />
<glyph unicode="&#xe911;" glyph-name="copyright" d="M473.976 937.794c-3.802-0.4-15.61-1.801-26.017-3.002-158.301-18.012-304.595-117.275-385.046-261.167-29.219-52.434-50.432-117.475-59.438-182.917-4.003-28.618-3.602-105.467 0.801-134.086 18.012-117.275 66.242-213.136 147.694-293.588 86.455-85.255 193.724-135.487 314.001-146.494 131.484-12.208 263.769 27.818 367.235 111.271 220.341 177.514 254.963 500.12 77.65 720.061-81.852 101.465-194.925 165.906-326.809 186.119-20.013 3.002-94.46 5.604-110.070 3.802zM552.226 856.942c32.020-3.202 62.040-9.606 94.661-20.213 97.662-32.020 178.714-96.262 234.35-185.919 47.43-76.649 69.845-174.512 60.839-265.37-13.409-135.687-88.457-254.963-205.932-328.010-76.649-47.43-174.311-69.845-265.37-60.839-170.909 16.811-315.602 132.685-368.836 295.189-29.619 90.458-29.619 179.315 0 269.773 24.616 75.448 70.645 144.092 129.883 193.924 89.857 75.648 206.732 112.472 320.405 101.465zM475.176 684.632c-99.263-13.609-181.516-81.652-213.336-175.913-13.008-38.425-16.41-91.458-8.405-131.084 21.214-105.868 99.263-183.918 206.532-206.532 26.217-5.403 74.648-5.003 101.865 1.201 46.83 10.207 82.253 28.018 118.676 59.038 17.211 14.809 23.615 25.616 23.615 39.425-0.2 22.214-17.811 39.825-40.026 39.825-11.607 0-19.613-4.003-34.022-16.811-41.827-37.224-98.863-54.035-152.097-44.428-35.423 6.404-65.642 21.614-91.458 46.029-38.224 36.023-57.036 79.451-57.036 131.284 0 49.231 16.41 89.857 51.033 125.48 67.243 69.444 176.513 72.646 249.56 7.605 14.609-13.208 22.414-17.011 34.422-17.011 29.419 0.2 48.231 30.82 35.423 57.437-4.603 9.606-26.417 29.419-47.831 43.428-27.418 18.212-59.438 31.22-93.060 38.224-19.212 4.003-64.641 5.604-83.854 2.802z" />
<glyph unicode="&#xe912;" glyph-name="slideshow" d="M193.8 933.067c-13.8-7.2-22-19.8-23.4-35.4-1.6-20 12-39.4 31.8-45 4.2-1.2 118.6-2 309.8-2s305.6 0.8 309.8 2c19.8 5.6 33.4 25 31.8 45-1.4 15.6-9.6 28.2-23.4 35.4l-10.6 5.6h-615.2l-10.6-5.6zM130 790.867c-24-7.4-37-28.4-31.8-52 2.6-12 13.4-25.2 24.6-30.4 7.8-3.6 23.4-3.8 389.2-3.8s381.4 0.2 389.2 3.8c11.2 5.2 22 18.4 24.6 30.4 4.4 20.2-4.4 38.6-22.8 48.4l-8 4.4-380 0.4c-209 0.2-382.2-0.4-385-1.2zM54.8 643.867c-12.2-3.8-20.4-10.8-25.8-22.2l-5-10.2 0.4-334.2 0.6-334.2 6-8.8c4-5.6 9.8-10.4 16.8-14l11-5.6h906.4l11 5.6c7 3.6 12.8 8.4 16.8 14l6 8.8 0.6 333.2c0.6 371.4 1.6 343.2-13.2 357.6-14.2 13.8 20.6 12.8-475.2 12.6-357.8 0-449.8-0.6-456.4-2.6zM912 280.667v-278h-800v556h800v-278z" />
<glyph unicode="&#xe913;" glyph-name="circle-notch" horiz-adv-x="1397" d="M556.215 902.047c-83.701-25.217-144.868-61.703-204.424-120.723-95.507-96.042-142.722-201.742-148.086-334.268-5.902-130.38 32.192-241.445 116.967-341.244 168.475-198.522 463.576-233.935 671.22-80.482 104.626 77.263 178.67 197.449 197.986 322.465 9.658 59.558 2.682 163.11-13.413 217.838-41.851 138.429-147.551 259.689-273.102 313.344-83.165 35.949-125.016 41.314-134.674 17.17-5.366-15.023-3.756-53.655 3.756-62.777 3.22-4.293 23.609-13.413 43.997-19.852 55.264-17.706 98.188-39.704 133.065-68.678 97.116-80.482 147.551-183.5 151.306-307.441 3.756-119.649-33.803-213.545-118.041-297.783-50.971-50.971-102.481-81.555-171.158-101.945-43.46-13.413-53.118-14.486-123.406-12.341-91.749 2.682-141.112 16.633-202.278 57.41-91.749 60.093-150.232 137.355-177.597 235.007-14.486 53.655-16.097 151.843-2.682 207.107 33.265 135.746 137.355 244.665 275.249 288.661 20.388 6.438 40.241 14.486 43.997 17.17 3.756 3.22 6.438 17.706 6.438 35.949 0 46.68-15.023 53.655-75.116 35.412z" />
<glyph unicode="&#xe914;" glyph-name="cctv" d="M24.57 935.107c-9.805-4.402-17.608-14.007-20.61-25.212-3.001-11.005-3.001-471.023 0-481.828 2.601-9.404 12.606-21.21 21.21-24.612 5.202-2.201 39.619-2.801 185.688-2.801h179.085v-141.467c0-78.037-0.8-142.668-1.601-144.068-4.002-6.203-14.007-6.603-149.671-6.603h-136.865v51.424c0 48.023-0.2 51.825-4.202 60.029-14.007 29.014-53.826 28.413-68.633-0.8-3.001-6.003-3.202-20.010-2.801-143.268l0.6-136.665 4.802-7.003c17.208-25.212 54.026-22.411 66.432 5.202 3.202 7.003 3.802 13.606 3.802 51.625v43.421h138.666c84.24 0 143.468 0.8 151.472 2.001 32.415 5.202 60.229 29.014 71.434 61.229 3.001 8.804 3.402 24.812 4.002 157.275l0.8 147.67h154.073c149.871 0 154.273 0.2 161.877 4.002 15.007 7.604 20.21 18.809 23.011 50.024 0.6 8.204 1.801 16.608 2.201 18.609 1 3.202 7.003 3.402 91.043 3.402 96.846 0 98.247 0.2 109.452 10.605 12.006 11.205 11.405 1.801 12.006 177.084 0.4 105.25-0.2 163.278-1.601 168.28-3.001 11.205-10.005 20.21-19.009 25.012-7.604 4.002-11.606 4.202-78.837 4.802l-70.634 0.6 1.201 8.404c3.202 23.811 3.402 31.215 1.401 39.019-3.001 10.605-11.005 20.010-21.21 24.612-7.604 3.602-24.011 3.802-404.191 3.802-382.581 0-396.387-0.2-404.391-3.802zM774.123 858.471c0-5.603-39.819-370.975-41.22-377.178l-0.8-4.602h-654.31v191.691c0 105.45 0.6 192.491 1.401 193.092 0.6 0.8 157.275 1.401 348.164 1.401h346.764v-4.402zM945.805 669.382l0.4-116.655h-128.661l1.201 8.604c0.6 4.602 6.203 55.226 12.406 112.453s11.606 106.050 12.206 108.652l0.8 4.402 50.624-0.4 50.424-0.6 0.6-116.455z" />
<glyph unicode="&#xe915;" glyph-name="money-bill" d="M23 731.667c-9.6-3.4-20.4-15.2-22-23.8-0.6-3.4-0.8-132.2-0.6-286.4l0.6-280.2 5.6-7.2c3-4 8.4-9 12-11 6-3.2 33.8-3.4 489.2-4 320.8-0.2 485.2 0.2 490.2 1.6 10 2.6 17.2 8.6 22 18.2 4 7.6 4 12 3.6 290.4l-0.6 282.8-5.6 7.2c-3 4-8.4 9-12 11-6 3.2-33.8 3.4-490.4 3.8-412 0.4-485.2 0-492-2.4zM989 426.667v-273h-954l-0.6 271c-0.2 149 0 272.2 0.6 273.6 0.6 2 97.2 2.4 477.4 2l476.6-0.6v-273zM187 660.867c-10-6.2-13.2-11.2-18.4-29.6-2.6-9.6-7-21.2-9.6-25.6-11.4-19.4-35-36.2-58-41-12-2.4-21.6-8.2-27.8-16.6-4.2-5.6-4.2-7.6-4.8-116-0.4-80.4 0-112.8 1.8-119 2.8-10.4 12.6-19.4 24.2-22.6 28.2-7.6 38.6-13 52.2-27 11-11.2 16.4-21.4 22-41.4 5.2-18.2 9.8-25.4 19.8-30.6 8-4.2 639.2-4.2 647.2 0 10 5.2 14.6 12.4 19.8 30.6 2.6 9.6 7 21.4 9.6 25.8 11.2 19.4 35 36 58 40.8 14.2 3 23 9 28.6 20l4.4 8.8v218.4l-4.4 8.8c-5.6 11-14.4 17-28.6 20-23 4.8-46.8 21.4-58 40.8-2.6 4.4-7 16.2-9.6 25.8-3 10.6-7 19.8-9.6 22.8-10.6 11.2 11 10.6-334.2 10.6-306.6 0-318.8-0.2-324.6-3.8zM820.8 628.267c8.2-31.2 18.2-49.2 36.6-67 12.6-12 36.6-25 53.6-28.8l11-2.4v-206.8l-11-2.4c-17-3.8-41-16.8-53.6-28.8-18.4-17.8-28.4-35.8-36.6-66.8-1-3.8-616.6-3.8-617.6 0-8.4 31.2-18 48.8-36.8 66.8-12.8 12.2-36.4 25-53.4 28.8l-11 2.4v206.8l11 2.4c17 3.8 40.6 16.6 53.4 28.8 18.8 18 28.4 35.6 36.8 67 0.6 1.8 64 2.4 308.8 2.4s308.2-0.6 308.8-2.4zM476.6 593.467c-33.2-7.2-60.6-22.4-85.6-47.6-32.6-32.8-49-72.8-49-119.2 0-94 75.4-170 169-170 47.8 0 87.6 16.4 121.2 49.8 33.2 33.4 49.8 73.4 49.8 120 0 35.6-9 65.4-28.2 94.2-25.4 37.8-63.6 63.8-107.8 73.2-16.2 3.4-53 3.2-69.4-0.4zM555 555.867c41-14 71.2-43.8 85.8-85 5.8-16 6.2-19 6.2-44.2 0-24.4-0.6-28.6-5.6-43-14.6-41.4-44.2-71.2-85.2-85.8-16-5.8-19.2-6.2-44.2-6.2s-28.2 0.4-44.2 6.2c-54.4 19.4-88.8 65.8-91.4 123-0.8 17 0 24.2 3.2 37.6 12.8 50.4 48.8 86.8 99.2 100.4 21.2 5.6 54.6 4.4 76.2-3zM501.6 524.667c-2.8-2.2-5.6-6.4-6.2-9.6-0.8-4.4-3.8-7.4-10.4-11.4-17.2-10-27.2-33-22.8-52.8 4.8-22.2 20.2-36.4 44-40.4 15.6-2.8 21.8-7.6 21.8-17.2 0-9.2-2.8-13.8-10-16.4-8-2.6-15.2 0-22.2 8.4s-18.2 8.8-25 0.6c-9.2-10.4-4-24.4 13.4-35.6 7-4.6 10.4-8.2 11.2-12 1.4-7.2 9.4-13.6 16.6-13.6s15.2 6.6 16.6 13.6c0.8 4.4 3.8 7.4 10.4 11.4 17.2 10 27.2 33 22.8 52.8-4.8 22.2-20.2 36.4-44 40.4-15.8 2.8-21.8 7.6-21.8 17.6 0.2 8.4 3.4 13.2 10.6 16s14 0 22.2-8.8c8.2-8.6 17-9.4 24.2-2 10 9.8 4.4 26-13.2 37.4-7 4.6-10.4 8.2-11.2 12-1.4 7.2-9.4 13.6-16.6 13.6-3 0-7.8-1.8-10.4-4zM184.6 491.867c-38.6-12.6-58.4-56.2-41.8-92.6 6.6-14.6 20.6-28.8 34.8-35.2 7.4-3.4 13.2-4.4 27.4-4.4 15.6 0 19.4 0.8 29.2 5.6 27.2 13.2 42.2 42.4 37.4 72.6-3.2 21.2-17.6 40.6-37 50.2-13.2 6.4-36.6 8.2-50 3.8zM221 456.067c11.8-6.6 17-15.6 17-29.4 0-40-55.6-46.6-66-8-2.8 10.2 0 21.4 7.4 30.2 10.4 12.2 27.4 15.2 41.6 7.2zM798.6 491.867c-32.2-10.4-51.6-42.6-46.2-76.4 3.4-21.4 17.6-40.6 37.4-50.2 9.8-4.8 13.6-5.6 29.2-5.6 21.6 0 31.8 4 46.6 17.8 28.6 26.8 28.6 71.6 0 98.4-5.4 5-14 11-19.2 13.2-11.8 5.4-35.8 6.8-47.8 2.8zM832.6 457.867c14.4-6 23.4-24.2 19.4-39.2-7.8-28.8-44.6-35-61.4-10.2-5.4 8-6.2 25.2-1.8 33.8 8 15.6 27.4 22.6 43.8 15.6z" />
<glyph unicode="&#xe916;" glyph-name="hand-info" d="M498.124 936.020c-21.561-9.393-26.684-37.999-9.82-54.863 23.909-24.123 63.189-2.562 56.998 31.167-3.843 20.067-27.965 32.235-47.178 23.696zM498.124 799.396c-8.753-3.843-17.718-14.73-19.213-23.269-0.64-3.843-1.067-63.616-0.64-133.209 0.64-123.816 0.64-126.378 5.123-132.142 8.326-11.314 15.157-14.73 28.606-14.73s20.28 3.416 28.606 14.73c4.483 5.764 4.483 7.899 4.483 137.905s0 132.142-4.483 137.905c-2.348 3.202-6.831 7.899-9.82 10.033-7.045 5.337-24.123 6.831-32.662 2.775zM914.402 492.204c-5.764-1.708-14.089-4.696-18.145-6.831s-60.841-42.909-125.951-90.727c-65.11-47.819-119.333-87.312-120.614-87.952-1.281-0.854-1.921 3.629-1.494 12.168 2.348 45.043-25.19 85.604-69.166 101.828-11.955 4.27-16.865 4.696-86.244 5.55-83.042 0.854-117.198-1.281-149.86-9.393-32.662-8.326-58.492-19.853-100.547-45.043-37.358-22.201-38.426-22.628-44.83-20.067-34.156 14.303-64.256 14.089-94.356-0.64-13.022-6.404-20.067-12.595-50.167-43.336-37.572-38.212-44.616-48.246-50.167-71.301-3.843-16.224-4.056-29.673-0.854-45.043 5.55-26.898 31.167-61.908 47.392-64.897 16.865-2.989 33.089 5.977 38.853 21.561 4.696 12.168 2.989 21.134-6.618 35.437-14.516 20.707-16.651 30.741-9.606 44.189 5.337 10.033 56.998 61.481 64.897 64.47 8.539 2.989 21.988 2.775 28.819-0.854 8.326-4.483 204.296-201.735 208.352-209.847 4.27-8.326 4.483-19.853 0.427-29.033-1.494-3.843-15.584-20.067-31.381-36.077-31.167-31.594-37.999-35.864-54.65-32.662-7.045 1.281-15.37 8.539-62.548 55.504-59.133 58.706-61.908 60.627-79.84 56.571-22.628-5.123-32.875-26.898-22.628-48.032 2.775-5.764 23.269-27.538 57.212-61.268 47.392-46.965 54.223-52.942 68.739-59.987 22.415-11.101 42.482-13.876 64.897-9.393 28.606 5.977 36.718 11.314 76.211 50.594 38.212 37.785 46.111 49.099 51.875 74.29 1.921 9.179 3.629 12.382 6.831 12.809 2.135 0.213 67.458 6.191 144.95 13.235 165.657 14.943 167.365 15.157 192.555 39.066 20.707 19.64 219.453 242.508 225.217 252.969 22.842 39.706 11.528 92.648-24.977 117.839-20.28 13.876-50.807 19.853-72.582 14.303zM944.288 424.105c13.022-5.977 15.37-23.269 4.696-35.224-89.233-101.188-210.274-234.183-215.184-236.745-4.91-2.348-45.47-6.831-155.197-17.078l-148.793-13.876-2.989 4.91c-1.708 2.775-40.987 42.909-87.312 89.446l-84.109 84.536 23.696 14.303c44.83 27.111 75.143 37.999 116.131 42.055 13.449 1.281 53.796 1.921 92.222 1.494 66.177-0.64 68.526-0.854 75.784-5.337 23.482-14.516 21.775-49.313-2.989-60.627-6.831-3.202-14.089-4.056-33.516-4.056-22.201 0-25.617-0.427-31.808-4.696-10.674-7.258-15.37-15.157-16.438-26.684-1.067-13.876 5.55-25.617 18.572-32.235 9.606-4.91 10.247-4.91 73.649-4.056 73.649 0.854 76.424 1.281 103.536 19.64 8.753 5.977 67.458 48.672 130.22 94.783 62.762 46.324 116.985 85.817 120.614 87.952 7.472 4.696 11.528 4.91 19.213 1.494z" />
<glyph unicode="&#xe917;" glyph-name="hand-question" d="M484.239 935.972c-28.402-6.406-58.084-24.985-78.371-48.902-25.198-29.469-38.438-84.991-24.985-103.142 8.328-11.104 15.162-14.521 28.615-14.521 20.714 0 31.178 10.677 34.381 35.021 1.068 8.542 3.63 19.646 5.979 24.771 5.979 13.24 19.433 27.12 33.74 34.167 10.464 5.339 14.948 6.193 29.469 6.193 20.927 0.214 32.886-4.698 46.766-19.006s19.006-29.256 17.938-52.319c-1.495-29.042-13.24-46.126-41.001-59.366-19.646-9.396-37.798-26.907-46.98-45.699-9.396-18.578-12.599-33.954-11.531-56.376 0.641-19.006 3.417-24.985 15.375-33.74 8.328-6.193 28.402-6.193 36.73 0 11.959 8.755 14.308 14.308 15.802 36.089 1.708 25.412 4.057 28.829 27.974 41.641 21.782 11.745 44.844 33.74 54.668 52.319 34.167 65.131 15.802 145.211-41.855 183.435-28.615 19.006-69.829 26.907-102.715 19.433zM498.12 560.346c-21.568-9.396-26.693-38.011-9.823-54.881 23.917-24.131 63.209-2.563 57.017 31.178-3.844 20.073-27.974 32.245-47.193 23.704zM913.465 492.012c-5.339-1.281-14.094-4.912-19.433-7.901s-61.928-43.777-125.778-90.97c-64.064-46.98-117.236-85.845-118.518-86.486-1.281-0.854-1.922 3.63-1.495 12.172 1.495 29.042-8.969 55.735-30.11 76.876-7.261 7.261-18.365 15.802-24.558 19.006-21.355 10.891-31.391 11.959-113.606 11.959-81.574 0-102.075-1.495-136.242-9.61-31.605-7.688-57.23-19.006-100.58-44.844-20.927-12.386-38.652-22.422-39.719-22.422s-7.901 2.349-15.162 5.339c-26.053 10.464-57.23 9.182-83.71-3.203-11.318-5.339-19.86-12.599-46.766-39.079-35.235-34.594-47.621-50.824-52.959-68.548-4.912-15.802-6.193-36.73-3.203-51.037 5.766-28.615 30.964-63.636 47.621-66.84 16.87-2.99 33.1 5.979 38.865 21.568 4.912 12.599 3.203 20.5-8.542 38.225-18.578 28.402-16.657 35.021 21.141 73.46 15.375 15.802 30.537 29.896 33.74 31.605 7.474 3.844 23.704 3.844 31.178 0 8.969-4.698 207.139-204.363 209.488-211.196 3.203-8.328 2.99-19.646-0.641-27.761-1.708-3.844-16.016-19.86-31.605-35.876-30.964-31.818-38.011-36.089-54.454-32.886-7.047 1.281-15.375 8.542-62.569 55.522-45.272 45.058-55.949 54.454-62.996 56.376-16.443 4.271-32.245-2.776-39.506-17.724-4.912-10.464-5.339-17.938-1.281-27.547 1.495-4.057 26.693-30.964 57.017-61.715 49.97-50.397 55.522-55.308 70.256-62.355 30.537-14.521 60.647-14.735 91.824 0 14.308 6.62 19.86 11.318 50.61 42.496 29.896 29.896 35.876 36.943 42.282 50.183 4.057 8.542 7.901 19.86 8.755 24.985 0.854 5.339 2.563 9.823 3.844 10.25s19.219 2.349 39.719 4.057c170.409 14.948 249.848 23.063 262.874 26.907 26.693 7.901 30.323 11.318 147.56 142.435 80.079 89.475 111.471 125.992 116.596 135.815 14.094 26.48 14.094 56.162 0.427 83.923-17.084 34.808-62.569 55.095-100.366 44.844zM944.429 424.104c13.24-5.979 15.375-23.276 4.698-35.235-89.903-101.861-210.342-234.259-215.254-236.608-4.698-2.563-46.766-7.047-155.034-17.084l-148.841-13.667-3.203 4.698c-1.708 2.563-40.574 42.496-86.059 88.621s-82.856 84.564-82.856 85.632c0 2.135 49.115 30.751 64.064 37.37 39.719 17.297 63.636 20.5 155.888 20.5 82.428 0 85.845-0.641 96.309-15.162 7.261-10.25 7.261-29.896 0.214-39.933-8.542-11.745-15.375-13.88-46.766-15.162-23.917-1.068-29.042-1.922-33.954-5.766-9.61-7.047-14.308-14.948-15.162-25.839-1.068-12.599 5.339-24.985 16.443-31.391 7.047-4.271 10.677-4.484 72.605-4.484 62.355 0 65.772 0.214 79.225 4.912 17.511 5.979 17.297 5.979 161.013 111.684 64.704 47.621 118.945 87.126 120.653 87.981 5.339 1.922 10.037 1.708 16.016-1.068z" />
<glyph unicode="&#xe918;" glyph-name="home-apps" d="M479.855 915.491c-17.608-3.071-38.902-10.033-52.824-16.994-25.798-12.899-39.721-25.798-184.476-170.758-159.907-160.316-158.678-158.883-172.806-197.785-11.876-32.964-12.285-39.107-12.285-232.795 0-109.949 0.819-182.633 2.047-193.28 2.661-20.27 10.237-45.658 19.451-63.676 24.16-47.706 70.637-84.56 123.871-98.687l17.403-4.709h583.525l17.403 4.709c77.189 20.475 133.494 84.355 143.322 162.364 2.866 23.341 2.866 358.919-0.205 383.694-2.661 23.75-13.103 54.053-25.593 75.346-9.008 15.151-24.57 31.531-156.426 163.796-145.574 146.188-159.292 158.883-185.295 171.781-34.807 17.403-79.441 23.75-117.114 16.994zM537.593 849.973c7.985-1.638 22.113-6.756 31.735-11.466l17.403-8.395 145.574-145.779c133.085-133.085 146.188-146.802 152.945-159.907 15.56-30.507 14.742-18.632 14.742-229.315 0-209.455 0.819-195.328-13.923-226.039-9.419-19.451-34.192-43.816-54.872-54.053-29.074-14.332-13.718-13.718-319.199-13.718s-290.125-0.614-319.199 13.718c-20.679 10.033-45.454 34.602-54.667 53.848-14.946 30.917-13.923 15.766-14.742 217.849-0.614 206.384-0.819 204.336 14.128 234.638 8.395 17.403 8.395 17.403 154.174 162.978 145.574 145.779 145.574 145.779 162.978 154.174 28.46 13.923 54.258 17.403 82.922 11.466zM323.634 556.367c-14.332-4.504-28.665-16.789-36.035-30.917-3.481-6.552-3.89-12.49-3.89-65.518 0-65.723-0.205-64.495 15.971-81.489 14.946-15.356 22.113-16.789 81.284-16.789 58.762 0 65.518 1.434 81.284 16.789 15.56 15.151 16.994 22.318 16.994 81.489s-1.434 66.338-16.789 81.284c-16.789 15.971-16.38 15.971-78.418 16.38-30.303 0.205-57.534-0.409-60.4-1.229zM413.722 459.932v-32.76h-65.518v65.518h65.518v-32.76zM585.708 556.367c-14.332-4.504-28.665-16.789-36.035-30.917-3.481-6.552-3.89-12.49-3.89-65.518 0-65.723-0.205-64.495 15.971-81.489 14.946-15.356 22.113-16.789 81.284-16.789 58.762 0 65.518 1.434 81.284 16.789 15.56 15.151 16.994 22.318 16.994 81.489s-1.434 66.338-16.789 81.284c-16.789 15.971-16.38 15.971-78.418 16.38-30.303 0.205-57.534-0.409-60.4-1.229zM675.796 459.932v-32.76h-65.518v65.518h65.518v-32.76zM323.634 294.293c-14.332-4.504-28.665-16.789-36.035-30.917-3.481-6.552-3.89-12.49-3.89-65.518 0-65.723-0.205-64.495 15.971-81.489 14.946-15.356 22.113-16.789 81.284-16.789 58.762 0 65.518 1.434 81.284 16.789 15.56 15.151 16.994 22.318 16.994 81.489s-1.434 66.338-16.789 81.284c-16.789 15.971-16.38 15.971-78.418 16.38-30.303 0.205-57.534-0.409-60.4-1.229zM413.722 197.858v-32.76h-65.518v65.518h65.518v-32.76zM585.708 294.293c-14.332-4.504-28.665-16.789-36.035-30.917-3.481-6.552-3.89-12.49-3.89-65.518 0-65.723-0.205-64.495 15.971-81.489 14.946-15.356 22.113-16.789 81.284-16.789 58.762 0 65.518 1.434 81.284 16.789 15.56 15.151 16.994 22.318 16.994 81.489s-1.434 66.338-16.789 81.284c-16.789 15.971-16.38 15.971-78.418 16.38-30.303 0.205-57.534-0.409-60.4-1.229zM675.796 197.858v-32.76h-65.518v65.518h65.518v-32.76z" />
<glyph unicode="&#xe919;" glyph-name="search-user" d="M634 936.467c-77.2-8.2-147.8-40.8-202.6-93.6-53-51.2-87.4-113.2-102.8-186-4.8-22.6-5.4-29.4-5.4-67.2-0.2-47.4 2.4-66 14.2-105 11.4-38 35.8-84.8 59.2-114l7.4-9-40.6-40.4-40.4-40.6-20 19.8c-11 10.8-22 20.8-24.4 22-6 3-15.4 2.8-23.2-0.6-3.6-1.6-58.8-55.2-129.8-126.4-133-133.4-128.2-128-124.6-145.2 2-9.6 122.6-130.6 133.4-134 17.6-5.2 11.4-10.6 146.4 124 71.2 71 124.8 126.2 126.4 129.8 3.4 7.8 3.6 17.2 0.6 23.2-1.2 2.4-11.2 13.4-22 24.4l-19.8 20 40.6 40.4 40.4 40.6 9-7.4c41-32.8 101.2-59.6 157-69.8 31.2-5.8 94.4-5.2 124.8 0.8 68.2 13.8 129.2 45.2 178.2 91.8 33.2 31.4 53 58.4 72 97.6 58.8 121 44.2 267.6-37 372-16.6 21.4-54 57-76 72.8-21.4 15-63 35.8-88 44-48.6 15.6-103 21.4-153 16zM732 873.667c64-14 120.4-47 159.4-93.6 32-37.8 51.4-74.8 63.2-120.4 27.6-106.4-6.4-219-87.8-289.4l-13.8-11.8-1.2 28.6c-2 42.6-6 60.2-20.2 88.6-13.2 26-39.8 56-61 68.4l-8.4 4.8 9.2 11.4c54.2 66.6 24.4 170-57.4 198.6-17.8 6.2-53.4 7.6-71.8 2.8-33.6-8.6-66.2-35-80.8-65-23-47-18-98 13.4-136.4l9-11.2-10.4-6.8c-35.6-23.8-63.4-63.6-73.4-105.8-2.4-10.2-4.6-29-5.4-47.6l-1.6-30.8-13.6 12.4c-42.2 38.2-71.6 84.2-86.2 134.6-27.2 94.4-2.6 202.4 63.6 277.2 46.4 52.6 105.6 84.2 178.2 95.2 14 2 82.4-0.6 97-3.8zM697.4 700.467c15.8-5.8 32.6-22.8 37.8-38 5.6-16.6 4.8-36.8-2-50.4-6.8-14.2-18.6-25.8-32.8-32.8-9.6-4.8-13.8-5.6-27.4-5.4-13.2 0-18 1-27.2 5.4-12.6 6-28.4 21.8-33 32.6-14.8 35.2 1.6 75.4 36 88.6 14 5.4 33.6 5.4 48.6 0zM711.4 506.667c26.8-9.4 52.6-31.2 65.2-55.6 12.8-24.4 13.8-30.4 14.8-82.6l1-47.2-17.6-6.4c-64.2-23.4-135.4-24-198.2-2-9.6 3.4-18.8 7.2-20 8.2-3.2 2.6-3.6 64.6-0.6 87 6.2 48 38.2 86.2 84 100 19.8 6 52.2 5.4 71.4-1.4zM240.6 84.267l-97.6-97.6-71 71 195 195 71-71-97.4-97.4z" />
<glyph unicode="&#xe91a;" glyph-name="badge" d="M398.786 936.293c-24.417-6.404-38.227-16.411-66.246-46.632-29.621-32.222-35.625-36.625-66.847-50.835-32.423-14.61-49.034-25.017-61.042-38.227-16.812-18.813-24.817-42.43-29.020-86.66-3.603-36.425-5.404-41.429-28.82-81.056-28.22-47.633-28.82-86.86-2.001-133.093 26.619-46.032 27.219-47.433 30.821-84.058 4.603-48.834 12.609-70.249 33.623-90.863 7.805-7.405 19.414-16.211 27.019-20.214 7.405-3.803 13.409-7.805 13.409-9.006 0-1.001-25.218-56.039-56.039-122.085-42.63-91.464-56.039-122.085-56.039-127.889 0-17.412 12.809-30.221 29.821-29.621 5.003 0.2 36.225 6.605 69.248 14.21 55.238 12.809 60.242 13.609 62.644 10.607 1.401-1.801 15.211-28.22 30.621-58.441 18.813-37.026 30.221-56.84 34.424-60.442 7.005-6.404 16.211-8.606 25.418-6.605 14.21 3.202 16.411 6.805 70.049 121.885 28.019 60.042 51.436 109.276 52.036 109.276s24.017-49.234 52.036-109.276c54.238-116.281 56.039-119.283 70.849-121.885 9.607-1.801 17.412 0.2 24.817 6.605 4.003 3.603 15.611 23.817 34.224 60.442 15.411 30.221 29.22 56.639 30.621 58.441 2.402 3.002 7.405 2.202 62.644-10.607 33.023-7.605 64.245-14.010 69.248-14.21 17.012-0.6 29.821 12.208 29.821 29.621 0 5.804-13.409 36.425-56.039 127.889-30.821 66.046-56.039 121.084-56.039 122.085 0 1.201 6.004 5.204 13.409 9.006 7.605 4.003 19.213 12.809 27.019 20.214 21.015 20.614 29.020 42.029 33.623 90.863 3.603 36.625 4.403 38.427 27.819 79.055 31.022 53.237 30.621 86.46-1.601 143.1-22.616 39.628-22.416 39.027-26.218 76.053-4.803 49.234-12.609 70.249-33.824 91.263-13.609 13.209-18.013 15.811-71.049 40.828-17.412 8.206-21.415 11.208-35.024 25.618-33.423 35.825-47.033 48.434-61.243 55.839-26.619 13.81-46.833 14.61-99.069 3.603-16.011-3.202-32.222-6.004-36.025-6.004s-20.014 2.802-36.025 6.204c-33.824 7.005-62.443 9.006-77.054 5.003zM460.229 872.848c39.427-8.806 63.244-8.806 104.072 0 51.436 10.808 51.236 11.008 96.067-38.026 23.016-25.218 33.423-32.423 70.249-49.234 51.636-23.616 52.036-24.017 58.441-82.658 4.603-42.229 8.806-54.438 34.224-97.068 5.804-9.807 12.008-23.216 13.609-29.42 2.602-10.207 2.602-13.009 0-23.016-1.601-6.404-7.805-19.614-13.609-29.621-25.618-43.030-29.621-55.038-34.224-98.068-6.204-56.639-7.405-58.641-55.639-80.256-37.626-17.012-51.036-26.418-72.651-50.035-26.418-29.42-34.424-36.826-43.63-41.029-11.408-5.204-20.614-4.803-53.637 2.402-39.628 8.606-63.644 8.606-103.272 0-51.636-11.208-52.637-10.808-97.068 38.427-21.615 23.817-34.224 32.423-70.249 49.034-15.411 7.005-31.822 15.411-36.425 18.613-13.609 9.407-18.013 22.416-21.815 66.847-3.002 33.023-10.407 53.437-32.823 91.464-13.609 23.016-16.612 30.821-16.612 43.63 0 12.409 3.803 22.416 16.011 42.43 12.809 21.015 24.217 44.431 27.419 57.24 1.801 6.204 4.403 23.616 6.004 38.427 6.404 57.64 8.006 60.042 53.237 80.056 43.83 19.414 52.036 25.618 95.066 72.45 15.811 17.012 26.619 23.416 40.228 23.616 4.603 0 21.415-2.802 37.026-6.204zM330.138 242.61c23.016-25.418 43.23-41.229 59.842-46.833 16.011-5.204 39.628-6.204 59.641-2.402 9.407 1.601 17.212 3.002 17.412 2.602 0.6-0.801-84.259-181.526-85.259-181.526-0.6 0-9.607 16.812-20.014 37.226s-20.414 39.828-22.416 43.030c-4.803 7.805-15.010 13.81-23.616 13.81-3.803 0-26.418-4.603-50.035-10.007s-43.23-9.407-43.83-9.006c-0.4 0.6 18.013 41.029 40.828 90.063 30.221 64.845 42.229 88.662 44.031 87.461 1.401-0.801 12.008-11.808 23.416-24.417zM761.038 179.566c22.816-49.034 41.229-89.462 40.828-89.863-0.4-0.6-20.214 3.603-43.83 9.006s-46.232 9.807-50.035 9.807c-8.606 0-18.813-6.004-23.616-13.81-2.001-3.202-12.008-22.616-22.416-43.030s-19.414-37.226-20.014-37.226c-1.001 0-85.86 180.726-85.259 181.526 0.2 0.4 8.006-1.001 17.412-2.602 20.614-4.003 44.231-2.802 60.442 2.802 16.612 6.004 34.624 19.614 54.838 41.829 21.615 24.017 28.019 30.621 29.22 30.621 0.4 0 19.614-40.028 42.43-89.062zM472.437 771.978c-72.851-13.209-133.693-63.844-157.109-131.091-9.006-25.818-11.808-41.029-13.009-70.249-0.801-22.816-0.4-32.623 2.202-46.032 10.207-49.434 37.426-94.466 76.053-125.287 20.414-16.211 54.038-33.023 80.256-39.828 17.612-4.803 23.817-5.404 51.036-5.404 27.019 0 33.623 0.801 51.036 5.404 94.466 24.817 159.111 107.475 159.111 203.341 0 106.074-70.049 191.333-171.92 209.146-20.214 3.603-58.040 3.603-77.654 0zM551.893 710.736c25.818-7.005 44.831-18.413 65.045-38.827 30.221-30.221 42.83-57.84 44.631-98.268 3.803-90.863-60.242-158.911-149.704-158.911-59.842 0-109.276 30.021-134.093 81.056-12.409 25.418-15.010 37.626-14.81 71.049 0 26.218 0.4 30.621 5.404 45.031 8.006 23.817 18.213 39.828 38.427 60.042 24.417 24.617 50.035 37.826 84.058 43.23 15.010 2.402 44.231 0.4 61.042-4.403z" />
<glyph unicode="&#xe91b;" glyph-name="certificate" d="M62.022 905.365c-29.010-7.803-51.218-30.41-58.82-59.821-2.801-10.404-3.201-48.617-3.201-329.113 0-206.471 0.8-320.11 2.201-325.912 7.603-33.411 36.212-59.22 70.824-64.222 8.603-1.2 112.439-2.001 271.493-2.001h257.488l0.6-79.827c0.6-77.227 0.8-80.228 4.802-85.429 7.603-10.204 14.205-13.805 25.409-13.805 9.203 0 13.004 1.601 32.811 13.605 12.404 7.403 23.808 14.005 25.409 14.605s14.005-5.402 27.609-13.605c22.008-13.004 25.609-14.605 35.012-14.605 11.804 0 19.207 4.402 25.609 15.205 3.801 6.402 4.001 11.004 4.602 85.229l0.6 78.627h76.426c42.014 0 82.828 1 90.431 2.001 34.812 5.002 64.022 31.811 71.024 65.022 1.4 6.802 1.801 112.639 1.601 331.114-0.6 320.71-0.6 321.11-4.802 331.314-9.403 23.008-26.609 40.414-48.217 49.217l-11.604 4.602-443.152 0.4c-385.332 0.4-444.553 0-454.156-2.601zM956.73 840.942l6.602-6.402 0.6-315.909 0.4-315.708-4.602-6.802c-2.601-3.801-7.403-7.803-11.404-9.203-9.603-3.201-152.052-3.601-152.052-0.4 0 1.2 2.401 5.002 5.202 8.403 7.002 8.203 17.806 30.010 22.008 44.615 3.801 13.004 5.002 44.815 2.201 62.021-1.601 9.203-1.2 10.804 3.201 16.005 8.003 9.403 23.808 17.006 39.814 19.007 15.605 2.001 24.008 6.002 30.41 14.405 4.201 5.602 4.201 6.602 4.802 163.856l0.4 158.054-4.201 7.603c-5.202 9.203-16.606 16.005-27.409 16.005-15.605 0-28.41 5.802-41.414 19.007-13.205 13.004-19.007 25.809-19.007 41.614 0 5.002-1.801 11.204-5.002 16.406-9.403 16.206 13.405 15.005-295.502 15.005-270.293 0-274.494 0-282.697-4.001-10.604-5.002-16.206-15.205-17.606-31.211-2.401-30.21-30.21-56.82-59.020-56.82-11.004 0-23.008-6.802-28.010-15.805l-4.402-7.803 0.4-158.054c0.6-157.254 0.6-158.254 4.802-163.856 6.402-8.403 14.805-12.404 30.21-14.405 32.811-4.001 52.218-24.208 56.419-58.020 2.201-16.406 5.802-23.008 16.406-29.21 6.602-3.801 11.004-4.001 170.459-4.602 153.253-0.4 163.456-0.8 163.456-4.001 0.2-6.002 11.204-29.81 19.807-42.415 4.602-6.602 8.203-12.404 8.203-13.004s-114.039-1-253.487-0.8c-191.066 0-255.488 0.6-260.69 2.401-3.801 1.4-8.803 5.402-11.404 9.203l-4.602 6.802v312.907c0 346.119-0.8 322.711 12.604 329.513 5.802 2.801 49.417 3.001 441.952 2.601l435.75-0.4 6.402-6.602zM759.262 718.1c4.201-13.004 14.205-29.81 25.009-42.215 10.404-11.804 33.612-27.409 48.617-32.411l11.404-3.801v-123.642c0-117.24-0.2-123.642-3.601-123.642-4.802 0-29.61-12.204-39.414-19.407l-8.003-5.802-12.804 10.804c-71.625 60.621-183.263 31.011-214.274-57.020l-5.602-15.605-290.5-1-2.201 5.402c-10.003 24.809-17.206 36.413-31.811 51.018-12.004 12.004-19.007 17.206-32.011 23.608-9.203 4.402-18.406 8.003-20.407 8.003-3.401 0-3.601 5.802-3.601 123.642v123.442l14.605 5.402c18.006 7.002 38.413 22.008 50.217 36.813 9.003 11.604 19.607 31.411 22.008 41.414l1.2 5.402h487.768l3.401-10.404zM723.25 343.572c15.805-7.202 31.211-22.408 38.413-38.013 4.802-10.404 5.602-14.805 5.602-30.21s-0.8-19.807-5.402-29.41c-7.202-15.405-14.605-24.408-26.609-32.611-30.010-20.007-70.024-16.206-95.033 8.803-26.009 26.009-29.41 66.223-8.203 96.833 19.207 28.21 59.821 39.013 91.231 24.608zM722.249 84.683v-56.419l-11.204 6.002c-14.205 7.603-21.407 7.603-35.812 0-6.202-3.201-11.804-6.002-12.204-6.002s-0.8 25.409-0.8 56.619v56.419h60.021v-56.619zM319.111 664.482c-2.201-0.8-6.602-4.402-9.803-7.603-11.804-12.604-8.603-35.612 6.602-44.815l7.202-4.602h378.13l7.202 4.602c16.005 9.803 18.606 32.611 5.002 46.016l-7.202 7.403-191.666 0.4c-105.236 0.2-193.266-0.4-195.467-1.4zM316.51 542.44c-20.207-12.404-19.007-42.415 2.201-52.018 8.003-3.801 15.205-4.001 193.466-4.001s185.464 0.2 193.466 4.001c21.207 9.603 22.408 39.614 2.201 52.018-6.402 4.001-10.604 4.001-195.667 4.001s-189.265 0-195.667-4.001zM318.11 422.799c-21.407-10.604-21.407-42.215 0-52.818 6.402-3.201 15.605-3.601 104.036-3.601 109.438 0 106.637-0.4 115.44 15.205 5.802 10.204 5.802 19.407-0.4 29.81-8.803 15.205-7.803 15.005-116.64 15.005-86.83 0-96.033-0.4-102.435-3.601z" />
<glyph unicode="&#xe91c;" glyph-name="pencil-and-ruler" d="M147.141 936.783c-24.934-5.261-51.698-20.359-67.71-38.43-14.411-16.241-26.764-43.692-29.509-65.652-1.601-12.124-2.288-133.133-1.83-362.8l0.686-344.5 77.089-102.938c46.894-62.22 79.606-103.853 83.037-105.454 7.549-3.431 13.039-3.431 20.588 0 3.431 1.601 36.143 43.234 83.037 105.454l77.089 102.938 0.686 344.5c0.458 226.235-0.229 350.676-1.83 362.8-1.601 13.496-4.575 23.104-11.209 36.829-15.326 30.881-36.143 50.097-67.939 62.22-15.555 5.948-16.241 5.948-84.409 6.405-37.744 0.458-72.743-0.229-77.775-1.373zM297.202 883.941c15.784-7.549 29.051-20.359 36.6-35.456 5.261-10.523 5.49-13.954 6.176-57.417l0.686-46.437h-242.705v43.463c0 38.201 0.458 44.835 4.804 55.815 7.778 21.045 28.823 39.116 51.698 44.607 4.804 1.373 35.914 2.059 69.312 1.83 60.39-0.458 60.619-0.458 73.429-6.405zM340.436 443.595v-250.712l-8.006 4.804c-4.346 2.745-11.438 6.863-15.555 9.379-4.346 2.516-14.64 7.091-23.333 10.294-59.475 22.418-130.846 16.013-181.171-16.241-6.634-4.346-12.81-7.778-13.268-7.778-0.686 0-1.144 112.774-1.144 250.483v250.483h242.477v-250.712zM270.667 173.668c19.444-7.091 45.75-23.333 56.73-34.77l6.634-6.863-56.502-75.030c-30.881-41.404-57.188-75.259-58.332-75.259s-27.45 33.855-58.332 75.259l-56.502 75.030 6.634 6.863c9.15 9.608 35.456 26.764 49.41 32.025 25.163 9.608 33.855 10.98 63.364 10.065 24.705-0.686 31.11-1.601 46.894-7.32zM630.036 935.41c-39.345-9.608-74.802-42.319-87.383-80.063-4.118-13.039-4.346-25.391-4.346-428.68s0.229-415.641 4.346-428.68c9.15-27.679 32.254-54.9 58.789-68.854 28.365-14.869 32.483-15.098 161.956-14.411 113.232 0.686 115.977 0.915 129.245 5.948 20.359 7.549 33.169 15.784 47.58 30.424 16.699 17.156 30.653 44.835 33.855 67.253 1.373 9.836 2.288 164.701 2.288 408.321s-0.915 398.485-2.288 408.321c-2.745 19.215-16.241 48.038-29.509 63.135-12.124 13.725-30.424 26.078-49.639 33.626l-15.784 6.176-117.807 0.458c-96.076 0.229-120.323-0.229-131.303-2.974zM882.806 883.941c15.784-7.549 29.051-20.359 36.6-35.456l5.49-11.209v-821.218l-5.49-11.209c-7.549-15.098-20.816-27.908-36.6-35.456l-12.81-5.948h-112.088c-102.709 0-113.003 0.458-124.212 4.118-16.013 5.719-34.77 23.104-41.862 38.659-5.033 11.209-5.49 15.555-6.176 57.417l-0.915 45.064h86.239c92.187 0 97.219 0.458 104.997 11.666 4.804 6.863 4.804 20.13 0 26.993-7.778 11.209-12.81 11.666-104.997 11.666h-85.782v96.076h37.973c43.005 0 50.783 2.059 56.73 14.869 4.575 9.379 4.575 11.209 0 20.588-5.948 12.81-13.725 14.869-56.73 14.869h-37.973v96.076h85.782c92.187 0 97.219 0.458 104.997 11.666 4.804 6.863 4.804 20.13 0 26.993-7.778 11.209-12.81 11.666-104.997 11.666h-85.782v96.076h37.973c43.005 0 50.783 2.059 56.73 14.869 4.575 9.379 4.575 11.209 0 20.588-5.948 12.81-13.725 14.869-56.73 14.869h-37.973v96.076h85.782c92.187 0 97.219 0.458 104.997 11.666 4.804 6.863 4.804 20.13 0 26.993-7.778 11.209-12.81 11.666-104.997 11.666h-86.239l0.915 45.293c0.686 41.404 1.144 45.979 5.948 56.502 5.719 12.353 17.843 26.306 29.28 33.169 16.928 10.751 25.163 11.209 140.453 10.751l108.657-0.458 12.81-5.948z" />
<glyph unicode="&#xe91d;" glyph-name="grip-lines" d="M60.025 298.075c-13.167-13.447-10.366-36.421 5.884-45.945 7.284-4.482 41.463-4.762 432.843-4.762 471.785 0 437.325-1.401 445.73 18.771 5.323 12.047 1.401 26.055-9.245 34.459-7.284 5.604-10.366 5.604-437.045 5.604h-430.041l-8.125-8.125zM69.829 543.212c-4.762-2.241-10.926-6.724-13.447-10.366-5.884-8.405-5.884-24.654 0-33.058 10.646-14.848-9.525-14.288 444.049-14.288 466.182 0 434.244-1.401 443.489 18.21 5.604 11.486 5.604 13.727 0 25.214-9.245 19.611 22.693 18.21-444.33 18.21-348.516-0.28-422.477-0.84-429.761-3.922z" />
<glyph unicode="&#xe91e;" glyph-name="activity" d="M977.455 473.213h-186.182c-20.434 0-37.795-13.173-44.172-31.837l-95.464-286.441-235.101 705.35c-8.146 24.389-34.49 37.562-58.88 29.463-14.429-4.795-24.902-15.965-29.463-29.463l-129.024-387.072h-152.622c-25.693 0-46.546-20.853-46.546-46.546s20.853-46.546 46.546-46.546h186.182c19.689 0.14 37.702 12.428 44.172 31.837l95.464 286.441 235.101-705.35c4.561-13.498 15.034-24.623 29.416-29.416 24.389-8.146 50.735 5.074 58.88 29.416l129.071 387.072h152.622c25.693 0 46.546 20.853 46.546 46.546s-20.853 46.546-46.546 46.546z" />
<glyph unicode="&#xe91f;" glyph-name="airplay" d="M186.182 240.485h-46.546c-12.847 0-24.436 5.167-32.907 13.637s-13.637 20.061-13.637 32.907v465.455c0 12.847 5.167 24.436 13.637 32.907s20.061 13.637 32.907 13.637h744.727c12.847 0 24.436-5.167 32.907-13.637s13.637-20.061 13.637-32.907v-465.455c0-12.847-5.167-24.436-13.637-32.907s-20.061-13.637-32.907-13.637h-46.546c-25.693 0-46.546-20.853-46.546-46.546s20.853-46.546 46.546-46.546h46.546c38.54 0 73.541 15.686 98.723 40.913s40.913 60.183 40.913 98.723v465.455c0 38.54-15.686 73.541-40.913 98.723s-60.183 40.913-98.723 40.913h-744.727c-38.54 0-73.541-15.686-98.723-40.913s-40.913-60.183-40.913-98.723v-465.455c0-38.54 15.686-73.541 40.913-98.723s60.183-40.913 98.723-40.913h46.546c25.693 0 46.546 20.853 46.546 46.546s-20.853 46.546-46.546 46.546zM547.747 316.82c-1.629 2.002-3.677 4.049-5.957 5.957-19.736 16.477-49.105 13.777-65.536-5.957l-232.727-279.273c-6.703-8.006-10.799-18.432-10.799-29.789 0-25.693 20.853-46.546 46.546-46.546h465.455c10.473-0.047 21.085 3.491 29.789 10.799 19.736 16.477 22.435 45.801 5.957 65.536zM512 214.327l133.353-160.023h-266.705z" />
<glyph unicode="&#xe920;" glyph-name="alert-circle" d="M1024 426.667c0 141.359-57.344 269.451-149.97 362.030s-220.673 149.97-362.030 149.97-269.451-57.344-362.030-149.97-149.97-220.673-149.97-362.030 57.344-269.451 149.97-362.030 220.673-149.97 362.030-149.97 269.451 57.344 362.030 149.97 149.97 220.673 149.97 362.030zM930.909 426.667c0-115.712-46.825-220.346-122.694-296.216s-180.503-122.694-296.216-122.694-220.346 46.825-296.216 122.694-122.694 180.503-122.694 296.216 46.825 220.346 122.694 296.216 180.503 122.694 296.216 122.694 220.346-46.825 296.216-122.694 122.694-180.503 122.694-296.216zM465.454 612.849v-186.182c0-25.693 20.853-46.546 46.546-46.546s46.546 20.853 46.546 46.546v186.182c0 25.693-20.853 46.546-46.546 46.546s-46.546-20.853-46.546-46.546zM512 193.94c25.693 0 46.546 20.853 46.546 46.546s-20.853 46.546-46.546 46.546-46.546-20.853-46.546-46.546 20.853-46.546 46.546-46.546z" />
<glyph unicode="&#xe921;" glyph-name="alert-octagon" d="M319.302 938.667c-11.916 0-23.831-4.561-32.907-13.637l-272.757-272.757c-8.425-8.425-13.637-20.061-13.637-32.907v-385.397c0-11.916 4.561-23.831 13.637-32.907l272.757-272.757c8.425-8.425 20.061-13.637 32.907-13.637h385.397c11.916 0 23.831 4.561 32.907 13.637l272.757 272.757c8.425 8.425 13.637 20.061 13.637 32.907v385.397c0 11.916-4.561 23.831-13.637 32.907l-272.757 272.757c-8.425 8.425-20.061 13.637-32.907 13.637zM338.571 845.576h346.857l245.481-245.481v-346.857l-245.481-245.481h-346.857l-245.481 245.481v346.857zM465.454 612.849v-186.182c0-25.693 20.853-46.546 46.546-46.546s46.546 20.853 46.546 46.546v186.182c0 25.693-20.853 46.546-46.546 46.546s-46.546-20.853-46.546-46.546zM512 193.94c25.693 0 46.546 20.853 46.546 46.546s-20.853 46.546-46.546 46.546-46.546-20.853-46.546-46.546 20.853-46.546 46.546-46.546z" />
<glyph unicode="&#xe922;" glyph-name="alert-triangle" d="M473.895 767.73c3.265 5.501 8.274 10.823 14.938 14.848 10.554 6.395 22.63 7.961 33.811 5.188s21.199-9.66 27.46-20.037l378.631-632.081c3.131-5.367 5.322-11.986 5.724-19.41-0.671-16.458-5.322-26.432-12.657-33.945-8.050-8.23-19.097-13.328-30.994-13.462l-757.486 0.045c-6.798 0.045-14.356 1.833-21.512 5.993-10.689 6.172-17.845 16.055-20.842 27.148s-1.699 23.212 4.114 33.32zM397.149 813.706l-378.81-632.394c-18.873-32.693-22.63-69.321-13.775-102.418s30.412-62.971 62.524-81.487c20.751-11.986 43.651-17.89 65.967-17.979h757.754c37.523 0.403 70.977 15.832 94.948 40.34s38.641 58.275 38.239 95.307c-0.268 23.972-6.843 46.692-18.158 65.923l-378.989 632.706c-19.321 31.888-49.643 52.818-82.918 60.959s-69.814 3.623-101.479-15.609c-19.186-11.628-34.661-27.505-45.261-45.35zM467.276 560.838v-178.895c0-24.688 20.037-44.724 44.724-44.724s44.724 20.037 44.724 44.724v178.895c0 24.688-20.037 44.724-44.724 44.724s-44.724-20.037-44.724-44.724zM512 158.325c24.688 0 44.724 20.037 44.724 44.724s-20.037 44.724-44.724 44.724-44.724-20.037-44.724-44.724 20.037-44.724 44.724-44.724z" />
<glyph unicode="&#xe923;" glyph-name="align-center" d="M32.4 766.667c-16.8-4-32.4-23.2-32.4-39.8 0-18.8 12.8-36.8 29.2-41.8 12-3.6 953.6-3.6 965.6 0 11.4 3.4 23.8 16.4 27 28.2 5.4 19-2.6 39-19.4 48.8l-9.4 5.6-477 0.4c-262.4 0-480-0.4-483.6-1.4zM194.2 549.467c-18-9-26.8-28-22-47.6 3.2-13.4 17-27.6 30.2-30.8 7-1.8 86.4-2.4 310.2-2.4 339 0 314.8-1.2 329 15.2 19.2 21.8 13.6 52.8-11.8 65.6l-10.6 5.2h-614.4l-10.6-5.2zM25 337.267c-32.8-17.2-33.2-60-0.6-76.8 7.2-3.8 19-3.8 487-3.8 462.6 0 479.8 0.2 487.6 3.8 32.8 15.2 33.2 59.6 0.6 76.4-7.2 3.8-19 3.8-488 3.8-433.8-0.2-481.2-0.4-486.6-3.4zM201.6 126.267c-4.2-1-11.6-5.6-16.4-10-22.6-19.6-17.8-55 9-68.4l10.6-5.2h614.4l10.6 5.2c25.4 12.8 31 43.8 11.8 65.6-14.2 16.4 10.2 15.2-330.4 15-191.8-0.2-305-1-309.6-2.2z" />
<glyph unicode="&#xe924;" glyph-name="align" d="M32.4 766.667c-16.8-4-32.4-23.2-32.4-39.8 0-18.8 12.8-36.8 29.2-41.8 12-3.6 953.6-3.6 965.6 0 11.4 3.4 23.8 16.4 27 28.2 5.4 19-2.6 39-19.4 48.8l-9.4 5.6-477 0.4c-262.4 0-480-0.4-483.6-1.4zM28.4 552.467c-9.8-2.8-23.6-17.6-26.4-28.2-5.2-19 2.8-39.2 19.6-49l9.4-5.6h962l9.4 5.6c16.8 9.8 24.8 29.8 19.4 48.8-3.2 11.8-15.6 24.8-27 28.2-10.4 3-955.8 3.2-966.4 0.2zM25 337.267c-32.8-17.2-33.2-60-0.6-76.8 7.2-3.8 19-3.8 487-3.8 462.6 0 479.8 0.2 487.6 3.8 32.8 15.2 33.2 59.6 0.6 76.4-7.2 3.8-19 3.8-488 3.8-433.8-0.2-481.2-0.4-486.6-3.4zM32.4 126.667c-16.8-4-32.4-23.2-32.4-39.8 0-18.8 12.8-36.8 29.2-41.8 12-3.6 953.6-3.6 965.6 0 11.4 3.4 23.8 16.4 27 28.2 5.4 19-2.6 39-19.4 48.8l-9.4 5.6-477 0.4c-262.4 0-480-0.4-483.6-1.4z" />
<glyph unicode="&#xe925;" glyph-name="align-right" d="M32.4 766.667c-16.8-4-32.4-23.2-32.4-39.8 0-18.8 12.8-36.8 29.2-41.8 12-3.6 953.6-3.6 965.6 0 11.4 3.4 23.8 16.4 27 28.2 5.4 19-2.6 39-19.4 48.8l-9.4 5.6-477 0.4c-262.4 0-480-0.4-483.6-1.4zM368 551.467c-15.6-6.8-26-22.2-26-38.8 0-17.6 7.6-30.4 23-38.6l8-4.4h620l9.4 5.6c16.8 9.8 24.8 29.8 19.4 48.8-3.2 11.8-15.6 24.8-27 28.2-6.4 1.8-77.6 2.4-314 2.4-268.8-0.2-306.6-0.6-312.8-3.2zM25 337.267c-32.8-17.2-33.2-60-0.6-76.8 7.2-3.8 19-3.8 487-3.8 462.6 0 479.8 0.2 487.6 3.8 32.8 15.2 33.2 59.6 0.6 76.4-7.2 3.8-19 3.8-488 3.8-433.8-0.2-481.2-0.4-486.6-3.4zM374 126.867c-20.8-6.4-32-21.2-32-42.2 0-16.8 10.6-32.2 26.4-38.8 6.6-2.8 41.2-3.2 312.8-3.2 235.8 0 307.2 0.6 313.6 2.4 11.4 3.4 23.8 16.4 27 28.2 5.4 19-2.6 39-19.4 48.8l-9.4 5.6-307 0.4c-168.8 0.2-309.2-0.4-312-1.2z" />
<glyph unicode="&#xe926;" glyph-name="anchor" d="M605.091 752.486c0-25.74-10.38-48.92-27.276-65.816s-40.076-27.276-65.816-27.276-48.92 10.38-65.816 27.276-27.276 40.076-27.276 65.816 10.38 48.92 27.276 65.816 40.076 27.276 65.816 27.276 48.92-10.38 65.816-27.276 27.276-40.076 27.276-65.816zM186.181 473.213h-139.636c-25.693 0-46.546-20.853-46.546-46.546 0-141.359 57.344-269.451 149.97-362.030s220.673-149.97 362.030-149.97 269.451 57.344 362.030 149.97 149.97 220.673 149.97 362.030c0 25.693-20.853 46.546-46.546 46.546h-139.636c-25.693 0-46.546-20.853-46.546-46.546s20.853-46.546 46.546-46.546h90.531c-10.705-97.094-54.598-184.134-120.134-249.67s-152.576-109.428-249.67-120.134v561.85c32.722 8.425 61.999 25.553 85.086 48.64 33.652 33.652 54.551 80.291 54.551 131.677s-20.899 98.025-54.551 131.63-80.244 54.551-131.63 54.551-98.025-20.899-131.63-54.551-54.551-80.244-54.551-131.63 20.899-98.025 54.551-131.63c23.087-23.133 52.364-40.262 85.086-48.686v-561.85c-97.094 10.705-184.134 54.598-249.67 120.134s-109.428 152.576-120.134 249.67h90.531c25.693 0 46.546 20.853 46.546 46.546s-20.853 46.546-46.546 46.546z" />
<glyph unicode="&#xe927;" glyph-name="aperture" d="M485.097 659.394l103.471 179.2c84.946-15.686 160.908-57.019 219.648-115.712 19.363-19.363 36.864-40.634 52.177-63.488h-241.757zM296.96 519.758l-103.424 179.061c7.121 8.331 14.522 16.337 22.249 24.064 69.818 69.818 164.073 115.060 268.8 121.81l-120.646-208.989zM323.863 287.031h-206.941c-15.453 43.659-23.831 90.671-23.831 139.636 0 66.56 15.5 129.443 43.101 185.344l121.018-209.641zM766.744 450.964l-66.607 115.34h206.941c15.453-43.659 23.831-90.671 23.831-139.636 0-66.56-15.5-129.443-43.101-185.344l-119.901 207.686zM539.369 8.643l187.671 324.934 103.424-179.106c-7.121-8.285-14.522-16.337-22.249-24.017-69.818-69.818-164.073-115.060-268.8-121.81zM451.491-81.796c2.141-0.372 4.282-0.651 6.47-0.698 17.734-1.862 35.794-2.84 54.039-2.84 141.359 0 269.451 57.344 362.030 149.969 17.036 17.036 32.861 35.235 47.337 54.505 1.955 2.187 3.677 4.515 5.12 6.935 61.347 84.387 97.513 188.322 97.513 300.59 0 71.633-14.755 139.869-41.332 201.821-0.745 2.048-1.583 4.003-2.56 5.865-25.74 57.902-61.906 110.173-106.077 154.345-79.174 79.174-184.32 132.608-301.522 146.432-2.141 0.372-4.282 0.651-6.47 0.698-17.734 1.862-35.794 2.84-54.039 2.84-141.359 0-269.451-57.344-362.030-149.969-17.036-16.989-32.861-35.235-47.337-54.505-1.955-2.187-3.677-4.515-5.167-6.935-61.3-84.387-97.466-188.322-97.466-300.59 0-71.633 14.755-139.869 41.332-201.821 0.745-2.048 1.583-4.003 2.56-5.865 25.74-57.902 61.906-110.173 106.077-154.345 79.174-79.174 184.32-132.608 301.522-146.432zM538.903 193.94l-103.471-179.2c-84.946 15.686-160.908 57.019-219.648 115.712-19.363 19.363-36.864 40.634-52.177 63.488h241.757zM673.28 426.667l-80.617-139.636h-161.327l-80.617 139.636 80.617 139.636h161.327z" />
<glyph unicode="&#xe928;" glyph-name="archive-2" d="M170.668 554.667h682.666v-469.332h-682.666zM42.668 853.333c-23.552 0-42.667-19.115-42.667-42.667v-213.333c0-23.552 19.115-42.667 42.667-42.667h42.667v-511.999c0-23.552 19.115-42.667 42.667-42.667h767.999c23.552 0 42.667 19.115 42.667 42.667v511.999h42.667c23.552 0 42.667 19.115 42.667 42.667v213.333c0 23.552-19.115 42.667-42.667 42.667zM85.334 767.999h853.331v-128h-853.331zM426.667 384h170.667c23.552 0 42.667 19.115 42.667 42.667s-19.115 42.667-42.667 42.667h-170.667c-23.552 0-42.667-19.115-42.667-42.667s19.115-42.667 42.667-42.667z" />
<glyph unicode="&#xe929;" glyph-name="arrow-down" d="M914.748 471.914l-338.749-338.749v741.497c0 35.328-28.672 64-64 64s-64-28.672-64-64v-741.497l-338.749 338.749c-25.024 25.024-65.536 25.024-90.496 0s-25.024-65.536 0-90.496l447.996-447.996c5.887-5.887 12.928-10.624 20.736-13.888 15.679-6.463 33.343-6.463 49.024 0 7.552 3.136 14.592 7.744 20.736 13.888l447.996 447.996c25.024 25.024 25.024 65.536 0 90.496s-65.536 25.024-90.496 0z" />
<glyph unicode="&#xe92a;" glyph-name="arrow-down-circle" d="M1024 426.667c0 141.359-57.344 269.451-149.97 362.030s-220.673 149.97-362.030 149.97-269.451-57.344-362.030-149.97-149.97-220.673-149.97-362.030 57.344-269.451 149.97-362.030 220.673-149.97 362.030-149.97 269.451 57.344 362.030 149.97 149.97 220.673 149.97 362.030zM930.909 426.667c0-115.712-46.825-220.346-122.694-296.216s-180.503-122.694-296.216-122.694-220.346 46.825-296.216 122.694-122.694 180.503-122.694 296.216 46.825 220.346 122.694 296.216 180.503 122.694 296.216 122.694 220.346-46.825 296.216-122.694 122.694-180.503 122.694-296.216zM465.454 612.849v-260.003l-106.729 106.729c-18.2 18.2-47.663 18.2-65.816 0s-18.2-47.663 0-65.816l186.182-186.182c4.282-4.282 9.403-7.727 15.081-10.101 11.403-4.701 24.25-4.701 35.654 0 5.493 2.281 10.612 5.632 15.081 10.101l186.182 186.182c18.2 18.2 18.2 47.663 0 65.816s-47.663 18.2-65.816 0l-106.729-106.729v260.003c0 25.693-20.853 46.546-46.546 46.546s-46.546-20.853-46.546-46.546z" />
<glyph unicode="&#xe92b;" glyph-name="arrow-down-left" d="M938.656 85.341h-647.323l707.653 707.653c33.365 33.365 33.365 87.38 0 120.659s-87.38 33.365-120.659 0l-707.653-707.653v647.323c0 47.103-38.229 85.332-85.332 85.332s-85.332-38.229-85.332-85.332v-853.314c0-47.103 38.229-85.332 85.332-85.332h853.314c47.103 0 85.332 38.229 85.332 85.332s-38.229 85.332-85.332 85.332z" />
<glyph unicode="&#xe92c;" glyph-name="arrow-down-right" d="M853.326 853.323v-647.323l-707.653 707.653c-33.365 33.365-87.38 33.365-120.659 0s-33.365-87.38 0-120.659l707.653-707.653h-647.323c-47.103 0-85.332-38.229-85.332-85.332s38.229-85.332 85.332-85.332h853.314c11.606 0 22.613 2.304 32.681 6.486s19.456 10.326 27.647 18.518c7.85 7.85 14.166 17.238 18.518 27.647 4.182 10.070 6.486 21.078 6.486 32.681v853.314c0 47.103-38.229 85.332-85.332 85.332s-85.332-38.229-85.332-85.332z" />
<glyph unicode="&#xe92d;" glyph-name="arrow-left" d="M557.247 23.919l-338.75 338.75h741.498c35.328 0 64 28.672 64 64s-28.672 64-64 64h-741.498l338.75 338.75c25.024 25.024 25.024 65.536 0 90.496s-65.536 25.024-90.496 0l-447.997-447.997c-6.144-6.144-10.752-13.183-13.888-20.736-3.264-7.807-4.864-16.192-4.864-24.511 0-16.384 6.271-32.767 18.751-45.247l447.997-447.997c25.024-25.024 65.536-25.024 90.496 0s25.024 65.536 0 90.496z" />
<glyph unicode="&#xe92e;" glyph-name="arrow-left-circle" d="M1024 426.667c0 141.359-57.344 269.451-149.97 362.030s-220.673 149.97-362.030 149.97-269.451-57.344-362.030-149.97-149.97-220.673-149.97-362.030 57.344-269.451 149.97-362.030 220.673-149.97 362.030-149.97 269.451 57.344 362.030 149.97 149.97 220.673 149.97 362.030zM930.909 426.667c0-115.712-46.825-220.346-122.694-296.216s-180.503-122.694-296.216-122.694-220.346 46.825-296.216 122.694-122.694 180.503-122.694 296.216 46.825 220.346 122.694 296.216 180.503 122.694 296.216 122.694 220.346-46.825 296.216-122.694 122.694-180.503 122.694-296.216zM698.182 473.213h-260.003l106.729 106.729c18.2 18.2 18.2 47.663 0 65.816s-47.663 18.2-65.816 0l-186.182-186.182c-4.468-4.468-7.82-9.588-10.101-15.081-2.374-5.678-3.538-11.776-3.538-17.827 0-11.916 4.561-23.831 13.637-32.907l186.182-186.182c18.2-18.2 47.663-18.2 65.816 0s18.2 47.663 0 65.816l-106.729 106.729h260.003c25.693 0 46.546 20.853 46.546 46.546s-20.853 46.546-46.546 46.546z" />
<glyph unicode="&#xe92f;" glyph-name="arrow-right" d="M466.753 829.414l338.749-338.749h-741.497c-35.328 0-64-28.672-64-64s28.672-64 64-64h741.497l-338.749-338.749c-25.024-25.024-25.024-65.536 0-90.496s65.536-25.024 90.496 0l447.996 447.996c5.887 5.887 10.624 12.928 13.888 20.736 6.463 15.679 6.463 33.343 0 49.024-3.136 7.552-7.744 14.592-13.888 20.736l-447.996 447.996c-25.024 25.024-65.536 25.024-90.496 0s-25.024-65.536 0-90.496z" />
<glyph unicode="&#xe930;" glyph-name="arrow-right-circle" d="M1024 426.667c0 141.359-57.344 269.451-149.97 362.030s-220.673 149.97-362.030 149.97-269.451-57.344-362.030-149.97-149.97-220.673-149.97-362.030 57.344-269.451 149.97-362.030 220.673-149.97 362.030-149.97 269.451 57.344 362.030 149.97 149.97 220.673 149.97 362.030zM930.909 426.667c0-115.712-46.825-220.346-122.694-296.216s-180.503-122.694-296.216-122.694-220.346 46.825-296.216 122.694-122.694 180.503-122.694 296.216 46.825 220.346 122.694 296.216 180.503 122.694 296.216 122.694 220.346-46.825 296.216-122.694 122.694-180.503 122.694-296.216zM325.818 380.121h260.003l-106.729-106.729c-18.2-18.2-18.2-47.663 0-65.816s47.663-18.2 65.816 0l186.182 186.182c4.282 4.282 7.727 9.403 10.101 15.081 4.701 11.403 4.701 24.25 0 35.654-2.281 5.493-5.632 10.612-10.101 15.081l-186.182 186.182c-18.2 18.2-47.663 18.2-65.816 0s-18.2-47.663 0-65.816l106.729-106.729h-260.003c-25.693 0-46.546-20.853-46.546-46.546s20.853-46.546 46.546-46.546z" />
<glyph unicode="&#xe931;" glyph-name="arrow-up" d="M109.252 381.42l338.75 338.75v-741.498c0-35.328 28.672-64 64-64s64 28.672 64 64v741.498l338.75-338.75c25.024-25.024 65.536-25.024 90.496 0s25.024 65.536 0 90.496l-447.997 447.997c-5.887 5.887-12.928 10.624-20.736 13.888s-16.192 4.864-24.511 4.864c-16.384 0-32.767-6.271-45.247-18.751l-447.997-447.997c-25.024-25.024-25.024-65.536 0-90.496s65.536-25.024 90.496 0z" />
<glyph unicode="&#xe932;" glyph-name="arrow-up-circle" d="M1024 426.667c0 141.359-57.344 269.451-149.97 362.030s-220.673 149.97-362.030 149.97-269.451-57.344-362.030-149.97-149.97-220.673-149.97-362.030 57.344-269.451 149.97-362.030 220.673-149.97 362.030-149.97 269.451 57.344 362.030 149.97 149.97 220.673 149.97 362.030zM930.909 426.667c0-115.712-46.825-220.346-122.694-296.216s-180.503-122.694-296.216-122.694-220.346 46.825-296.216 122.694-122.694 180.503-122.694 296.216 46.825 220.346 122.694 296.216 180.503 122.694 296.216 122.694 220.346-46.825 296.216-122.694 122.694-180.503 122.694-296.216zM558.546 240.485v260.003l106.729-106.729c18.2-18.2 47.663-18.2 65.816 0s18.2 47.663 0 65.816l-186.182 186.182c-4.468 4.468-9.588 7.82-15.081 10.101-5.678 2.374-11.776 3.538-17.827 3.538-11.916 0-23.831-4.561-32.907-13.637l-186.182-186.182c-18.2-18.2-18.2-47.663 0-65.816s47.663-18.2 65.816 0l106.729 106.729v-260.003c0-25.693 20.853-46.546 46.546-46.546s46.546 20.853 46.546 46.546z" />
<glyph unicode="&#xe933;" glyph-name="arrow-up-left" d="M170.673 0.011v647.324l707.655-707.655c33.365-33.365 87.38-33.365 120.658 0s33.365 87.38 0 120.658l-707.655 707.655h647.324c47.104 0 85.331 38.229 85.331 85.331s-38.229 85.331-85.331 85.331h-853.316c-47.104 0-85.331-38.229-85.331-85.331v-853.316c0-47.104 38.229-85.331 85.331-85.331s85.331 38.229 85.331 85.331z" />
<glyph unicode="&#xe934;" glyph-name="arrow-up-right" d="M85.344 767.993h647.323l-707.653-707.653c-33.365-33.365-33.365-87.38 0-120.659s87.38-33.365 120.659 0l707.653 707.653v-647.323c0-47.103 38.229-85.332 85.332-85.332s85.332 38.229 85.332 85.332v853.314c0 11.606-2.304 22.613-6.486 32.681s-10.326 19.456-18.432 27.561c-0.086 0.086-0.086 0.086-0.17 0.17-7.85 7.85-17.238 14.166-27.561 18.432-10.070 4.182-21.077 6.486-32.681 6.486h-853.314c-47.103 0-85.332-38.229-85.332-85.332s38.229-85.332 85.332-85.332z" />
<glyph unicode="&#xe935;" glyph-name="at-sign" d="M651.636 426.667c0-38.587-15.592-73.402-40.913-98.723s-60.136-40.913-98.723-40.913-73.402 15.592-98.723 40.913-40.913 60.136-40.913 98.723 15.592 73.402 40.913 98.723 60.136 40.913 98.723 40.913 73.402-15.592 98.723-40.913 40.913-60.136 40.913-98.723zM686.080 272.229c6.051-8.471 12.754-16.43 20.061-23.738 33.652-33.652 80.291-54.551 131.677-54.551s98.025 20.899 131.63 54.551 54.551 80.244 54.551 131.63v46.546c0 141.359-57.391 269.451-149.97 362.030s-220.673 149.97-362.077 149.923-269.406-57.344-362.030-149.97-149.923-220.673-149.923-362.030 57.391-269.451 149.97-362.030 220.673-149.97 362.030-149.923c117.527 0 225.979 39.657 311.389 105.612 20.34 15.686 24.11 44.916 8.378 65.303s-44.916 24.11-65.303 8.378c-69.213-53.434-157.184-85.83-252.974-86.203-118.225 0.419-222.301 47.197-297.798 122.694-75.73 75.823-122.601 180.457-122.601 296.169s46.825 220.346 122.694 296.216 180.503 122.694 296.216 122.694 220.346-46.825 296.216-122.694 122.694-180.503 122.694-296.169v-46.546c0-25.74-10.38-48.92-27.276-65.816s-40.076-27.276-65.816-27.276-48.92 10.38-65.816 27.276-27.276 40.076-27.276 65.816v232.727c0 25.693-20.853 46.546-46.546 46.546s-46.546-20.853-46.546-46.546c-38.866 29.184-87.273 46.546-139.636 46.546-64.233 0-122.508-26.112-164.584-68.143s-68.143-100.352-68.143-164.584 26.112-122.508 68.143-164.584 100.352-68.143 164.584-68.143 122.508 26.112 164.584 68.143c3.259 3.259 6.47 6.656 9.542 10.101z" />
<glyph unicode="&#xe936;" glyph-name="award" d="M639.404 280.575l32-241.154-137.43 82.476c-13.269 7.851-29.995 8.363-43.904 0l-137.43-82.476 32.043 241.111c39.296-15.829 82.305-24.533 127.318-24.533s88.022 8.747 127.404 24.576zM654.166 384.384c-2.475-1.28-4.821-2.773-6.955-4.48-39.253-24.448-85.548-38.571-135.212-38.571-70.7 0-134.657 28.587-181.037 74.966s-74.966 110.337-74.966 181.037 28.587 134.657 74.966 181.037 110.337 74.966 181.037 74.966 134.657-28.587 181.037-74.966 74.966-110.337 74.966-181.037-28.587-134.657-74.966-181.037c-11.861-11.861-24.875-22.571-38.869-31.915zM304.638 326.186l-48.256-363.225c-3.115-23.339 13.312-44.8 36.693-47.915 9.984-1.323 19.669 0.939 27.563 5.717l191.362 114.817 191.405-114.817c20.224-12.117 46.421-5.589 58.54 14.635 5.205 8.661 6.955 18.389 5.717 27.563l-48.213 363.311c11.947 9.173 23.296 19.115 33.92 29.739 61.697 61.697 99.969 147.073 99.969 241.325s-38.272 179.629-99.969 241.367-147.116 99.969-241.367 99.969-179.629-38.272-241.367-99.969-99.969-147.116-99.969-241.367 38.272-179.629 99.969-241.367c10.667-10.667 22.016-20.608 33.963-29.781z" />
<glyph unicode="&#xe937;" glyph-name="bar-chart" d="M568.889-28.443v568.889c0 31.403-25.487 56.889-56.889 56.889s-56.889-25.487-56.889-56.889v-568.889c0-31.403 25.487-56.889 56.889-56.889s56.889 25.487 56.889 56.889zM910.222-28.443v910.222c0 31.403-25.487 56.889-56.889 56.889s-56.889-25.487-56.889-56.889v-910.222c0-31.403 25.487-56.889 56.889-56.889s56.889 25.487 56.889 56.889zM227.556-28.443v227.556c0 31.403-25.487 56.889-56.889 56.889s-56.889-25.487-56.889-56.889v-227.556c0-31.403 25.487-56.889 56.889-56.889s56.889 25.487 56.889 56.889z" />
<glyph unicode="&#xe938;" glyph-name="bar-chart-2" d="M910.222-28.443v568.889c0 31.403-25.487 56.889-56.889 56.889s-56.889-25.487-56.889-56.889v-568.889c0-31.403 25.487-56.889 56.889-56.889s56.889 25.487 56.889 56.889zM568.889-28.443v910.222c0 31.403-25.487 56.889-56.889 56.889s-56.889-25.487-56.889-56.889v-910.222c0-31.403 25.487-56.889 56.889-56.889s56.889 25.487 56.889 56.889zM227.556-28.443v341.333c0 31.403-25.487 56.889-56.889 56.889s-56.889-25.487-56.889-56.889v-341.333c0-31.403 25.487-56.889 56.889-56.889s56.889 25.487 56.889 56.889z" />
<glyph unicode="&#xe939;" glyph-name="battery" d="M128 725.334c-35.328 0-67.413-14.379-90.496-37.504s-37.504-55.168-37.504-90.496v-341.333c0-35.328 14.379-67.413 37.504-90.496s55.168-37.504 90.496-37.504h597.333c35.328 0 67.413 14.379 90.496 37.504s37.504 55.168 37.504 90.496v341.333c0 35.328-14.379 67.413-37.504 90.496s-55.168 37.504-90.496 37.504zM128 640h597.333c11.776 0 22.4-4.736 30.165-12.501s12.501-18.389 12.501-30.165v-341.333c0-11.776-4.736-22.4-12.501-30.165s-18.389-12.501-30.165-12.501h-597.333c-11.776 0-22.4 4.736-30.165 12.501s-12.501 18.389-12.501 30.165v341.333c0 11.776 4.736 22.4 12.501 30.165s18.389 12.501 30.165 12.501zM1024 384v85.333c0 23.552-19.115 42.667-42.667 42.667s-42.667-19.115-42.667-42.667v-85.333c0-23.552 19.115-42.667 42.667-42.667s42.667 19.115 42.667 42.667z" />
<glyph unicode="&#xe93a;" glyph-name="battery-charging" d="M213.333 213.334h-85.333c-11.776 0-22.4 4.736-30.165 12.501s-12.501 18.389-12.501 30.165v341.333c0 11.776 4.736 22.4 12.501 30.165s18.389 12.501 30.165 12.501h136.107c23.552 0 42.667 19.115 42.667 42.667s-19.115 42.667-42.667 42.667h-136.107c-35.328 0-67.413-14.379-90.496-37.504s-37.504-55.168-37.504-90.496v-341.333c0-35.328 14.379-67.413 37.504-90.496s55.168-37.504 90.496-37.504h85.333c23.552 0 42.667 19.115 42.667 42.667s-19.115 42.667-42.667 42.667zM640 640h85.333c11.776 0 22.4-4.736 30.165-12.501s12.501-18.389 12.501-30.165v-341.333c0-11.776-4.736-22.4-12.501-30.165s-18.389-12.501-30.165-12.501h-136.107c-23.552 0-42.667-19.115-42.667-42.667s19.115-42.667 42.667-42.667h136.107c35.328 0 67.413 14.379 90.496 37.504s37.504 55.168 37.504 90.496v341.333c0 35.328-14.379 67.413-37.504 90.496s-55.168 37.504-90.496 37.504h-85.333c-23.552 0-42.667-19.115-42.667-42.667s19.115-42.667 42.667-42.667zM1024 384v85.333c0 23.552-19.115 42.667-42.667 42.667s-42.667-19.115-42.667-42.667v-85.333c0-23.552 19.115-42.667 42.667-42.667s42.667 19.115 42.667 42.667zM433.835 706.347l-170.667-256c-13.056-19.627-7.765-46.080 11.819-59.179 7.339-4.907 15.659-7.211 23.68-7.168h176.256l-126.464-189.653c-13.056-19.627-7.765-46.080 11.819-59.179s46.080-7.765 59.179 11.819l170.667 256c4.523 6.656 7.211 14.848 7.211 23.68 0 23.552-19.115 42.667-42.667 42.667h-176.256l126.464 189.653c13.056 19.627 7.765 46.080-11.819 59.179s-46.080 7.765-59.179-11.819z" />
<glyph unicode="&#xe93b;" glyph-name="bell" d="M744.756 612.873c0-186.717 44.084-303.515 86.167-372.41h-637.846c42.083 68.896 86.167 185.693 86.167 372.41 0 64.288 26.023 122.43 68.151 164.605s100.318 68.151 164.605 68.151 122.43-26.023 164.605-68.151 68.151-100.318 68.151-164.605zM837.86 612.873c0 89.984-36.542 171.495-95.431 230.429s-140.445 95.431-230.429 95.431-171.495-36.542-230.429-95.431-95.431-140.445-95.431-230.429c0-285.22-111.397-374.599-119.311-380.51-21.088-14.337-26.674-43.013-12.522-64.288 8.938-13.36 23.555-20.622 38.731-20.716h837.923c25.696 0 46.552 20.855 46.552 46.552 0 15.781-7.821 29.699-19.971 38.218-8.193 6.052-119.683 95.431-119.683 380.744zM552.267 31.075c-6.471-11.125-16.712-18.574-28.303-21.646s-24.207-1.723-35.332 4.701c-7.541 4.376-13.174 10.334-16.712 16.619-12.755 22.345-41.151 30.118-63.496 17.364s-30.118-41.151-17.364-63.496c11.638-20.436 29.001-38.312 50.881-51.021 33.33-19.365 71.456-23.322 105.95-14.152s65.59 31.562 84.91 64.892c12.895 22.252 5.307 50.741-16.898 63.635s-50.741 5.307-63.635-16.898z" />
<glyph unicode="&#xe93c;" glyph-name="bell-off" d="M548.907 64.086c-5.931-10.197-15.317-17.024-25.941-19.84s-22.187-1.579-32.384 4.309c-6.912 4.011-12.075 9.472-15.317 15.232-11.691 20.48-37.717 27.605-58.197 15.915s-27.605-37.717-15.915-58.197c10.667-18.731 26.581-35.115 46.635-46.763 30.549-17.749 65.493-21.376 97.109-12.971s60.117 28.928 77.824 59.477c11.819 20.395 4.864 46.507-15.488 58.325s-46.507 4.864-58.325-15.488zM810.667 598.315c-0.171 82.048-33.451 156.416-87.168 210.261-53.931 54.101-128.597 87.68-211.072 87.808-61.781 0.085-119.424-18.645-166.4-50.347-19.499-13.184-24.661-39.723-11.477-59.264s39.723-24.661 59.264-11.477c32.597 22.016 72.875 35.371 116.48 35.712 61.781-0.469 114.517-24.277 152.789-62.72 38.485-38.613 62.208-91.733 62.251-150.443-1.792-70.741 7.381-148.309 28.373-225.152 6.229-22.741 29.653-36.139 52.395-29.909s36.139 29.653 29.909 52.395c-18.901 69.333-26.965 138.667-25.344 200.875 0 0.213 0 0.469 0 0.683 0 0.128 0 0.256 0 0.384zM298.496 579.798l323.84-323.797h-402.645c37.205 60.928 76.075 162.645 78.805 323.797zM12.501 865.835l207.189-207.189c-4.523-21.035-6.613-41.984-6.357-61.867 0-260.864-102.101-342.784-109.355-348.203-19.328-13.141-24.448-39.424-11.477-58.923 8.192-12.245 21.589-18.901 35.499-18.987h579.669l243.499-243.499c16.683-16.683 43.691-16.683 60.331 0s16.683 43.691 0 60.331l-938.667 938.667c-16.683 16.683-43.691 16.683-60.331 0s-16.683-43.691 0-60.331z" />
<glyph unicode="&#xe93d;" glyph-name="pallete" d="M458.907 938.359c-120.61-12.622-216.177-58.302-297.719-142.448-66.516-68.72-110.393-143.25-127.823-217.98-7.613-32.657-9.016-46.080-9.016-83.145 0-37.666 2.204-55.296 10.819-86.15 32.256-118.006 126.020-211.97 234.409-234.809 24.443-5.009 52.091-5.209 112.396-0.801 64.713 4.608 79.338 2.204 91.96-15.227 3.406-4.608 7.413-13.023 9.016-18.632 3.406-11.42 6.812-43.476 7.012-63.31 0-17.23 4.608-43.476 10.819-61.708 11.22-33.258 36.063-64.713 63.511-80.941 22.239-13.023 41.072-18.031 68.92-18.232 13.423-0.2 30.253 1.002 38.066 2.605 90.358 17.831 198.146 114.199 260.454 232.806 32.256 61.107 52.692 123.015 63.511 192.135 6.010 39.068 6.411 109.992 0.801 149.26-19.234 134.635-86.351 249.435-198.546 339.993-38.868 31.255-100.175 65.114-147.257 81.342-26.446 9.016-58.502 17.030-87.152 21.437-19.234 3.005-87.553 5.61-104.182 3.807zM550.267 864.23c91.159-12.622 175.306-56.098 246.229-127.022 72.526-72.526 114.399-154.67 129.426-254.444 4.808-31.455 4.808-94.565 0-126.22-7.213-47.683-19.434-91.56-37.265-133.232-48.084-112.797-145.454-213.572-227.397-235.21-12.622-3.406-38.667-2.805-49.887 1.202-20.836 7.413-39.87 31.856-46.281 59.303-1.603 7.213-3.807 27.849-5.009 45.88-3.606 62.509-13.423 91.76-39.87 117.805-31.255 31.054-66.115 37.866-155.471 31.054-50.889-3.807-70.723-3.206-92.962 3.005-81.943 23.040-151.664 102.98-171.9 196.342-5.209 24.042-5.009 82.143 0 106.185 15.627 72.727 53.894 138.842 115.802 200.55 64.312 64.513 136.037 101.176 224.191 114.8 24.443 3.807 83.145 3.807 110.393 0zM413.428 801.32c-22.239-3.406-41.673-14.024-59.303-31.856-20.035-20.235-30.453-45.88-30.453-75.131 0-58.302 49.286-107.387 108.189-107.387 14.024 0 39.469 7.213 51.69 14.626 39.669 23.842 60.706 70.323 51.69 113.598-12.021 56.899-65.514 94.765-121.812 86.15zM445.684 727.592c20.836-10.418 26.847-38.667 11.821-55.697-8.214-9.416-15.427-12.822-26.646-12.822-30.253 0-46.882 33.258-29.051 58.302 8.815 12.221 30.253 17.23 43.877 10.218zM661.060 723.184c-34.46-5.209-65.715-27.849-80.941-58.702s-15.227-64.112-0.2-94.765c17.23-34.861 49.486-57.1 87.753-60.305 50.488-4.207 99.974 32.056 111.795 81.743 8.615 36.864-1.603 73.929-28.049 100.575-24.443 24.643-58.302 36.464-90.358 31.455zM691.713 648.854c21.638-10.418 26.246-42.674 8.214-59.303-16.228-15.227-45.88-9.817-55.497 10.017-15.828 32.457 15.227 64.713 47.282 49.286zM219.089 615.997c-19.434-4.808-35.462-14.425-50.889-29.852-21.638-22.038-30.854-44.077-30.854-74.33 0-30.052 10.017-54.695 31.054-75.932 21.838-22.239 44.277-31.655 75.131-31.655 32.256 0 53.894 9.416 77.335 33.458 20.035 20.836 29.251 44.478 29.051 75.131-0.2 45.279-29.251 85.75-72.326 100.175-16.629 5.61-42.875 7.012-58.502 3.005zM260.762 543.070c25.244-15.427 24.443-51.289-1.402-64.312-33.659-17.23-67.117 25.044-43.476 55.296 10.218 13.023 31.455 17.23 44.878 9.016zM749.414 471.746c-54.495-11.821-91.76-65.715-83.546-120.61 9.016-59.504 67.117-101.577 124.217-90.358 22.239 4.408 39.87 13.624 55.296 28.85 20.636 20.436 30.453 41.072 32.657 69.321 2.404 30.854-8.214 60.105-30.052 82.143-15.427 15.828-30.253 24.443-50.688 29.652-17.631 4.608-30.653 4.808-47.884 1.002zM789.484 398.017c23.241-13.223 23.040-49.086-0.2-62.709-23.842-14.024-52.892 3.406-52.892 31.655 0 27.448 29.251 44.478 53.093 31.054z" />
<glyph unicode="&#xe93e;" glyph-name="bold" d="M227.556 483.556v341.333h398.223c47.161 0 89.713-19.057 120.661-50.005s50.005-73.5 50.005-120.661-19.057-89.713-50.005-120.661-73.5-50.005-120.661-50.005zM113.777 426.667v-455.111c0-31.403 25.487-56.889 56.889-56.889h512c78.507 0 149.732 31.915 201.159 83.285s83.285 122.652 83.285 201.159-31.915 149.732-83.285 201.159c-18.489 18.489-39.537 34.475-62.577 47.332 1.935 1.82 3.812 3.641 5.689 5.519 51.371 51.371 83.285 122.596 83.285 201.103s-31.915 149.732-83.285 201.159-122.652 83.285-201.159 83.285h-455.111c-31.403 0-56.889-25.487-56.889-56.889zM227.556 369.778h455.111c47.161 0 89.713-19.057 120.661-50.005s50.005-73.5 50.005-120.661-19.057-89.713-50.005-120.661-73.5-50.005-120.661-50.005h-455.111z" />
<glyph unicode="&#xe93f;" glyph-name="book" d="M256 938.667c-44.963 0-85.784-18.292-115.2-47.709s-47.709-70.237-47.709-115.2v-698.182c0-44.963 18.292-85.784 47.709-115.2s70.237-47.709 115.2-47.709h628.363c25.693 0 46.546 20.853 46.546 46.546v930.909c0 25.693-20.853 46.546-46.546 46.546zM837.818 147.394v-139.636h-581.818c-19.27 0-36.677 7.773-49.384 20.434s-20.434 30.115-20.434 49.384 7.773 36.677 20.434 49.384 30.115 20.434 49.384 20.434zM256 845.576h581.818v-605.091h-581.818c-24.995 0-48.64-5.632-69.818-15.686v550.958c0 19.27 7.773 36.677 20.434 49.384s30.115 20.434 49.384 20.434z" />
<glyph unicode="&#xe940;" glyph-name="book-open" d="M930.908 799.029v-605.089h-279.272c-33.885 0-65.722-9.076-93.090-24.902v490.354c0 38.586 15.592 73.402 40.913 98.723s60.136 40.913 98.723 40.913zM465.454 169.039c-27.369 15.826-59.206 24.902-93.090 24.902h-279.272v605.089h232.726c38.586 0 73.402-15.592 98.723-40.913s40.913-60.136 40.913-98.723zM977.453 892.12h-279.272c-64.233 0-122.508-26.112-164.584-68.142-7.773-7.773-14.988-16.105-21.597-24.948-6.61 8.844-13.824 17.175-21.597 24.948-42.077 42.030-100.351 68.142-164.584 68.142h-279.272c-25.693 0-46.546-20.853-46.546-46.546v-698.179c0-25.693 20.853-46.546 46.546-46.546h325.817c25.74 0 48.919-10.38 65.815-27.276s27.276-40.076 27.276-65.815c0-25.693 20.853-46.546 46.546-46.546s46.546 20.853 46.546 46.546c0 25.74 10.38 48.919 27.276 65.815s40.076 27.276 65.815 27.276h325.817c25.693 0 46.546 20.853 46.546 46.546v698.179c0 25.693-20.853 46.546-46.546 46.546z" />
<glyph unicode="&#xe941;" glyph-name="bookmark" d="M840.652-75.81c8.243-5.939 18.586-9.523 29.747-9.523 28.262 0 51.2 22.938 51.2 51.2v819.2c0 42.394-17.255 80.896-45.005 108.595s-66.202 45.005-108.595 45.005h-512c-42.394 0-80.896-17.255-108.595-45.005s-45.005-66.202-45.005-108.595v-819.2c-0.052-10.189 3.072-20.684 9.523-29.747 16.435-22.988 48.436-28.364 71.424-11.879l328.652 234.701zM819.2 65.348l-277.453 198.195c-18.176 13.004-41.933 12.39-59.495 0l-277.453-198.195v719.717c0 14.131 5.683 26.88 15.001 36.198s22.067 15.001 36.198 15.001h512c14.131 0 26.88-5.683 36.198-15.001s15.001-22.067 15.001-36.198z" />
<glyph unicode="&#xe942;" glyph-name="box" d="M834.867 666.556l-322.867-186.781-322.867 186.781 299.443 171.104c5.195 2.969 10.761 4.87 16.466 5.752 10.111 1.577 20.64-0.139 30.334-5.752zM490.015-81.728c6.54-3.525 14.054-5.519 21.985-5.519 8.024 0 15.584 2.040 22.171 5.613 16.512 2.691 32.514 8.349 47.171 16.698l324.721 185.575c28.664 16.558 49.165 41.605 60.25 70.222 6.169 15.863 9.37 32.792 9.509 50.279v371.057c0 22.171-5.241 43.182-14.564 61.873-1.021 3.293-2.412 6.493-4.221 9.601-2.134 3.665-4.639 6.911-7.514 9.74-1.438 1.995-2.969 3.989-4.499 5.891-10.668 13.266-23.747 24.49-38.544 33.164l-325.093 185.761c-28.294 16.327-60.297 21.568-90.631 16.883-16.837-2.644-33.164-8.302-48.098-16.837l-324.721-185.575c-17.764-10.25-32.421-23.794-43.645-39.425-2.783-2.783-5.288-6.030-7.375-9.601-1.809-3.154-3.247-6.401-4.267-9.74-1.856-3.71-3.525-7.561-5.009-11.41-6.122-15.909-9.323-32.839-9.462-50v-371.382c0.047-32.931 11.502-63.219 30.798-87.106 10.668-13.266 23.747-24.49 38.544-33.164l325.093-185.761c15.028-8.674 31.076-14.24 47.402-16.79zM465.617 399.441v-370.64l-301.252 172.124c-5.148 3.014-9.601 6.865-13.219 11.363-6.447 7.978-10.204 17.903-10.204 28.85v346.104zM558.383 28.8v370.64l324.676 187.801v-346.104c-0.047-5.613-1.16-11.41-3.247-16.79-3.71-9.554-10.436-17.811-19.759-23.191z" />
<glyph unicode="&#xe943;" glyph-name="calendar" d="M279.273 892.122v-46.546h-93.091c-38.54 0-73.541-15.686-98.723-40.913s-40.913-60.183-40.913-98.723v-651.636c0-38.54 15.686-73.541 40.913-98.723s60.183-40.913 98.723-40.913h651.636c38.54 0 73.541 15.686 98.723 40.913s40.913 60.183 40.913 98.723v651.636c0 38.54-15.686 73.541-40.913 98.723s-60.183 40.913-98.723 40.913h-93.091v46.546c0 25.693-20.853 46.546-46.546 46.546s-46.546-20.853-46.546-46.546v-46.546h-279.273v46.546c0 25.693-20.853 46.546-46.546 46.546s-46.546-20.853-46.546-46.546zM884.363 566.303h-744.727v139.636c0 12.847 5.167 24.436 13.637 32.907s20.061 13.637 32.907 13.637h93.091v-46.546c0-25.693 20.853-46.546 46.546-46.546s46.546 20.853 46.546 46.546v46.546h279.273v-46.546c0-25.693 20.853-46.546 46.546-46.546s46.546 20.853 46.546 46.546v46.546h93.091c12.847 0 24.436-5.167 32.907-13.637s13.637-20.061 13.637-32.907zM139.637 473.213h744.727v-418.909c0-12.847-5.167-24.436-13.637-32.907s-20.061-13.637-32.907-13.637h-651.636c-12.847 0-24.436 5.167-32.907 13.637s-13.637 20.061-13.637 32.907z" />
<glyph unicode="&#xe944;" glyph-name="camera" d="M1024 128v469.333c0 35.328-14.379 67.413-37.504 90.496s-55.168 37.504-90.496 37.504h-147.84l-72.661 109.013c-7.765 11.52-20.736 18.987-35.499 18.987h-256c-13.909-0.085-27.307-6.741-35.499-18.987l-72.661-109.013h-147.84c-35.328 0-67.413-14.379-90.496-37.504s-37.504-55.168-37.504-90.496v-469.333c0-35.328 14.379-67.413 37.504-90.496s55.168-37.504 90.496-37.504h768c35.328 0 67.413 14.379 90.496 37.504s37.504 55.168 37.504 90.496zM938.667 128c0-11.776-4.736-22.4-12.501-30.165s-18.389-12.501-30.165-12.501h-768c-11.776 0-22.4 4.736-30.165 12.501s-12.501 18.389-12.501 30.165v469.333c0 11.776 4.736 22.4 12.501 30.165s18.389 12.501 30.165 12.501h170.667c14.763 0 27.733 7.467 35.499 18.987l72.661 109.013h210.347l72.661-109.013c8.192-12.245 21.589-18.901 35.499-18.987h170.667c11.776 0 22.4-4.736 30.165-12.501s12.501-18.389 12.501-30.165zM725.333 384c0 58.88-23.936 112.299-62.464 150.869s-91.989 62.464-150.869 62.464-112.299-23.936-150.869-62.464-62.464-91.989-62.464-150.869 23.936-112.299 62.464-150.869 91.989-62.464 150.869-62.464 112.299 23.936 150.869 62.464 62.464 91.989 62.464 150.869zM640 384c0-35.371-14.293-67.285-37.504-90.496s-55.125-37.504-90.496-37.504-67.285 14.293-90.496 37.504-37.504 55.125-37.504 90.496 14.293 67.285 37.504 90.496 55.125 37.504 90.496 37.504 67.285-14.293 90.496-37.504 37.504-55.125 37.504-90.496z" />
</font>
</defs>
</svg>
